<svg width="200" height="41" viewBox="0 0 200 41" fill="none" xmlns="http://www.w3.org/2000/svg">
<path d="M40.1995 20.8732L50.2492 30.9229L40.1995 40.9727L30.1497 30.9229L40.1995 20.8732Z" fill="#85A5FF"/>
<path d="M20.0905 20.8654L30.1357 30.9106L20.0905 40.9559L10.0452 30.9106L20.0905 20.8654Z" fill="#85A5FF"/>
<rect x="30.1582" y="10.8337" width="14.2252" height="14.2252" transform="rotate(45 30.1582 10.8337)" fill="#8A88FF"/>
<rect x="10.0587" y="10.8337" width="14.2252" height="14.2252" transform="rotate(45 10.0587 10.8337)" fill="#ADC6FF"/>
<path d="M40.208 0.774902L50.2667 10.8336L40.208 20.8924L30.1493 10.8336L40.208 0.774902Z" fill="#85A5FF"/>
<path d="M20.1078 0.774902L30.1665 10.8336L20.1078 20.8924L10.049 10.8336L20.1078 0.774902Z" fill="#85A5FF"/>
<rect x="50.2572" y="10.8247" width="14.2252" height="14.2252" transform="rotate(45 50.2572 10.8247)" fill="#ADC6FF"/>
<path d="M30.1582 10.8247L40.2169 20.8834L30.1582 30.9422L20.0995 20.8834L30.1582 10.8247Z" fill="#1D39C4"/>
<path d="M80.7258 16.4567C80.5722 16.286 80.2478 16.064 79.7528 15.7909C79.2578 15.5007 78.6603 15.2447 77.9604 15.0228C77.2776 14.7838 76.5692 14.6643 75.8352 14.6643C73.9063 14.6643 72.9418 15.3471 72.9418 16.7127C72.9418 17.2077 73.0954 17.6004 73.4027 17.8905C73.71 18.1807 74.1709 18.4283 74.7854 18.6331C75.3999 18.8379 76.1681 19.0599 77.0898 19.2988C78.2848 19.6061 79.3175 19.9646 80.1881 20.3743C81.0757 20.7839 81.75 21.3302 82.2109 22.013C82.6888 22.6787 82.9278 23.5664 82.9278 24.6759C82.9278 25.9733 82.612 27.0231 81.9804 27.8254C81.3659 28.6106 80.5465 29.1824 79.5223 29.5409C78.4981 29.8994 77.3886 30.0786 76.1937 30.0786C74.8281 30.0786 73.471 29.8738 72.1224 29.4641C70.791 29.0373 69.6046 28.457 68.5633 27.7229L70.1252 24.6759C70.2789 24.8296 70.552 25.0344 70.9446 25.2904C71.3372 25.5294 71.8152 25.7769 72.3785 26.033C72.9418 26.272 73.5563 26.4768 74.2221 26.6475C74.8878 26.8182 75.5621 26.9036 76.2449 26.9036C78.1909 26.9036 79.1639 26.2805 79.1639 25.0344C79.1639 24.5052 78.9676 24.0785 78.5749 23.7541C78.1823 23.4298 77.6276 23.1567 76.9106 22.9348C76.2107 22.7129 75.3914 22.4653 74.4525 22.1922C73.2917 21.8679 72.3273 21.5094 71.5591 21.1168C70.808 20.7071 70.2447 20.2035 69.8692 19.6061C69.4936 18.9916 69.3059 18.2149 69.3059 17.276C69.3059 16.0299 69.5961 14.9886 70.1764 14.1522C70.7739 13.2987 71.5762 12.6586 72.5833 12.2318C73.5905 11.788 74.7086 11.5661 75.9376 11.5661C77.2008 11.5661 78.3786 11.7709 79.4711 12.1806C80.5636 12.5903 81.5025 13.0597 82.2877 13.5889L80.7258 16.4567ZM85.0621 24.8552V16.4567H88.4932V24.1126C88.4932 26.1781 89.2357 27.2108 90.7208 27.2108C91.3865 27.2108 92.0267 27.0145 92.6412 26.6219C93.2728 26.2122 93.7849 25.5977 94.1775 24.7783V16.4567H97.6086V26.033C97.6086 26.4085 97.6684 26.6731 97.7878 26.8268C97.9073 26.9633 98.1207 27.0487 98.428 27.0828V29.8738C98.0866 29.9421 97.7964 29.9847 97.5574 30.0018C97.3355 30.0189 97.1306 30.0274 96.9429 30.0274C96.3284 30.0274 95.8248 29.8908 95.4322 29.6177C95.0566 29.3275 94.8347 28.9349 94.7664 28.4399L94.6896 27.3645C94.0922 28.2863 93.324 28.9776 92.3852 29.4385C91.4463 29.8994 90.4136 30.1298 89.2869 30.1298C87.9042 30.1298 86.8544 29.686 86.1375 28.7984C85.4205 27.8936 85.0621 26.5792 85.0621 24.8552ZM108.649 30.1298C107.624 30.1298 106.711 29.8994 105.909 29.4385C105.107 28.9776 104.475 28.346 104.014 27.5437V29.8738H101.018V11.182H104.449V18.8123C104.927 18.01 105.55 17.3784 106.319 16.9175C107.104 16.4567 108.017 16.2262 109.058 16.2262C110.219 16.2262 111.235 16.5505 112.105 17.1992C112.993 17.8308 113.684 18.6758 114.179 19.7341C114.674 20.7925 114.922 21.9532 114.922 23.2164C114.922 24.5138 114.649 25.6831 114.103 26.7243C113.556 27.7656 112.805 28.5935 111.849 29.208C110.91 29.8226 109.844 30.1298 108.649 30.1298ZM107.701 27.2108C108.435 27.2108 109.075 27.0316 109.622 26.6731C110.185 26.3147 110.62 25.8367 110.928 25.2392C111.252 24.6247 111.414 23.959 111.414 23.242C111.414 22.508 111.26 21.8337 110.953 21.2192C110.663 20.5876 110.253 20.0841 109.724 19.7085C109.195 19.333 108.589 19.1452 107.906 19.1452C107.155 19.1452 106.464 19.4013 105.832 19.9134C105.218 20.4084 104.757 21.0229 104.449 21.7569V24.9576C104.671 25.6233 105.107 26.1696 105.755 26.5963C106.404 27.006 107.053 27.2108 107.701 27.2108ZM132.18 29.8738V17.9418L127.52 26.8268H125.548L120.888 17.9418V29.8738H117.354V11.6941H121.144L126.521 22.0386L131.949 11.6941H135.713V29.8738H132.18ZM138.104 25.905C138.104 25.0344 138.343 24.2748 138.821 23.6261C139.316 22.9604 139.999 22.4483 140.87 22.0898C141.74 21.7313 142.739 21.5521 143.865 21.5521C144.429 21.5521 145.001 21.6033 145.581 21.7057C146.161 21.7911 146.665 21.9191 147.092 22.0898V21.3729C147.092 20.5193 146.836 19.8621 146.324 19.4013C145.828 18.9404 145.086 18.7099 144.096 18.7099C143.362 18.7099 142.662 18.8379 141.996 19.094C141.33 19.35 140.631 19.7256 139.897 20.2206L138.796 17.9674C139.683 17.387 140.588 16.9517 141.51 16.6615C142.449 16.3713 143.43 16.2262 144.454 16.2262C146.366 16.2262 147.851 16.7042 148.91 17.6601C149.985 18.616 150.523 19.9816 150.523 21.7569V26.033C150.523 26.4085 150.583 26.6731 150.702 26.8268C150.821 26.9633 151.035 27.0487 151.342 27.0828V29.8738C151.035 29.9421 150.753 29.9847 150.497 30.0018C150.258 30.0359 150.053 30.053 149.883 30.053C149.2 30.053 148.679 29.8994 148.321 29.5921C147.962 29.2849 147.749 28.9093 147.681 28.4655L147.604 27.7742C147.006 28.5423 146.272 29.1312 145.402 29.5409C144.548 29.9335 143.669 30.1298 142.764 30.1298C141.86 30.1298 141.057 29.9506 140.357 29.5921C139.658 29.2166 139.103 28.713 138.693 28.0814C138.301 27.4328 138.104 26.7073 138.104 25.905ZM146.452 26.5963C146.878 26.1866 147.092 25.794 147.092 25.4185V24.0614C146.204 23.7029 145.308 23.5237 144.403 23.5237C143.498 23.5237 142.764 23.72 142.201 24.1126C141.638 24.4882 141.356 24.9917 141.356 25.6233C141.356 26.1354 141.561 26.5963 141.971 27.006C142.38 27.4157 142.969 27.6205 143.737 27.6205C144.249 27.6205 144.745 27.5266 145.222 27.3389C145.718 27.1511 146.127 26.9036 146.452 26.5963ZM158.671 30.1298C157.527 30.1298 156.435 29.9421 155.393 29.5665C154.352 29.191 153.456 28.6362 152.705 27.9022L153.934 25.6745C154.736 26.3232 155.521 26.8012 156.29 27.1084C157.058 27.4157 157.809 27.5693 158.543 27.5693C159.209 27.5693 159.738 27.4498 160.13 27.2108C160.54 26.9719 160.745 26.6134 160.745 26.1354C160.745 25.6404 160.497 25.3075 160.002 25.1368C159.507 24.949 158.816 24.7186 157.928 24.4455C156.938 24.1382 156.11 23.8224 155.445 23.4981C154.779 23.1738 154.275 22.7811 153.934 22.3202C153.61 21.8594 153.447 21.2619 153.447 20.5279C153.447 19.2135 153.942 18.1637 154.932 17.3784C155.923 16.5932 157.237 16.2006 158.876 16.2006C159.832 16.2006 160.736 16.3542 161.59 16.6615C162.443 16.9517 163.22 17.4297 163.92 18.0954L162.537 20.2718C161.223 19.2476 159.951 18.7355 158.722 18.7355C158.176 18.7355 157.689 18.8379 157.263 19.0428C156.853 19.2476 156.648 19.6061 156.648 20.1182C156.648 20.5962 156.844 20.9376 157.237 21.1424C157.647 21.3472 158.261 21.5692 159.08 21.8081C160.139 22.1325 161.035 22.4483 161.769 22.7555C162.52 23.0628 163.083 23.4554 163.459 23.9334C163.852 24.4113 164.048 25.06 164.048 25.8794C164.048 27.2108 163.561 28.2521 162.588 29.0032C161.615 29.7543 160.31 30.1298 158.671 30.1298ZM174.347 29.1824C173.886 29.3873 173.314 29.5921 172.631 29.797C171.965 30.0018 171.274 30.1042 170.557 30.1042C169.925 30.1042 169.345 29.9933 168.816 29.7714C168.287 29.5494 167.86 29.1995 167.536 28.7215C167.228 28.2265 167.075 27.5864 167.075 26.8012V19.094H165.308V16.4567H167.075V12.1038H170.506V16.4567H173.322V19.094H170.506V25.6489C170.506 26.1098 170.625 26.4427 170.864 26.6475C171.12 26.8524 171.428 26.9548 171.786 26.9548C172.145 26.9548 172.494 26.895 172.836 26.7756C173.177 26.6561 173.45 26.5536 173.655 26.4683L174.347 29.1824ZM182.181 30.1298C180.73 30.1298 179.475 29.814 178.417 29.1824C177.375 28.5508 176.565 27.7144 175.984 26.6731C175.404 25.6148 175.114 24.4711 175.114 23.242C175.114 21.9788 175.395 20.8181 175.959 19.7597C176.539 18.6843 177.358 17.8308 178.417 17.1992C179.475 16.5505 180.738 16.2262 182.206 16.2262C183.674 16.2262 184.929 16.5505 185.97 17.1992C187.011 17.8308 187.805 18.6758 188.351 19.7341C188.915 20.7754 189.196 21.902 189.196 23.114C189.196 23.5578 189.171 23.9419 189.12 24.2662H178.749C178.835 25.3075 179.219 26.1269 179.902 26.7243C180.602 27.3218 181.404 27.6205 182.309 27.6205C182.991 27.6205 183.632 27.4584 184.229 27.134C184.844 26.7926 185.262 26.3488 185.484 25.8026L188.428 26.6219C187.933 27.6461 187.139 28.4911 186.047 29.1568C184.954 29.8055 183.666 30.1298 182.181 30.1298ZM178.673 22.0898H185.688C185.586 21.0827 185.202 20.2718 184.536 19.6573C183.888 19.0257 183.094 18.7099 182.155 18.7099C181.233 18.7099 180.439 19.0257 179.774 19.6573C179.125 20.2718 178.758 21.0827 178.673 22.0898ZM199.275 19.4269C198.234 19.4269 197.304 19.6317 196.484 20.0414C195.665 20.434 195.076 21.0058 194.718 21.7569V29.8738H191.287V16.4567H194.436V19.3244C194.897 18.4027 195.494 17.6772 196.228 17.148C196.98 16.6188 197.765 16.3286 198.584 16.2774C198.943 16.2774 199.173 16.286 199.275 16.303V19.4269Z" fill="#434343"/>
</svg>
