<svg width="22" height="22" viewBox="0 0 22 22" fill="none" xmlns="http://www.w3.org/2000/svg">
<path d="M20.2805 17.9746C19.7752 16.7777 19.0419 15.6906 18.1216 14.7737C17.204 13.8542 16.117 13.121 14.9207 12.6148C14.9099 12.6094 14.8992 12.6067 14.8885 12.6014C16.5573 11.396 17.6421 9.43262 17.6421 7.21744C17.6421 3.5478 14.6689 0.574585 10.9992 0.574585C7.32959 0.574585 4.35637 3.5478 4.35637 7.21744C4.35637 9.43262 5.44119 11.396 7.10994 12.6041C7.09923 12.6094 7.08852 12.6121 7.0778 12.6174C5.8778 13.1237 4.80102 13.8496 3.87691 14.7764C2.95738 15.694 2.22424 16.7809 1.71798 17.9773C1.22063 19.1485 0.952396 20.4042 0.927801 21.6764C0.927086 21.705 0.932101 21.7334 0.942549 21.76C0.952997 21.7866 0.968668 21.8109 0.988638 21.8314C1.00861 21.8518 1.03247 21.8681 1.05883 21.8792C1.08518 21.8903 1.11349 21.896 1.14209 21.896H2.74923C2.86709 21.896 2.96084 21.8023 2.96352 21.6871C3.01709 19.6192 3.84744 17.6826 5.3153 16.2148C6.83405 14.696 8.85102 13.8603 10.9992 13.8603C13.1474 13.8603 15.1644 14.696 16.6832 16.2148C18.151 17.6826 18.9814 19.6192 19.0349 21.6871C19.0376 21.8049 19.1314 21.896 19.2492 21.896H20.8564C20.885 21.896 20.9133 21.8903 20.9396 21.8792C20.966 21.8681 20.9899 21.8518 21.0098 21.8314C21.0298 21.8109 21.0455 21.7866 21.0559 21.76C21.0664 21.7334 21.0714 21.705 21.0707 21.6764C21.0439 20.396 20.7787 19.1505 20.2805 17.9746ZM10.9992 11.8246C9.76977 11.8246 8.61262 11.3451 7.74209 10.4746C6.87155 9.60405 6.39209 8.44691 6.39209 7.21744C6.39209 5.98798 6.87155 4.83084 7.74209 3.9603C8.61262 3.08976 9.76977 2.6103 10.9992 2.6103C12.2287 2.6103 13.3858 3.08976 14.2564 3.9603C15.1269 4.83084 15.6064 5.98798 15.6064 7.21744C15.6064 8.44691 15.1269 9.60405 14.2564 10.4746C13.3858 11.3451 12.2287 11.8246 10.9992 11.8246Z" fill="#2F54EB"/>
</svg>
