<svg width="22" height="16" viewBox="0 0 22 16" fill="none" xmlns="http://www.w3.org/2000/svg">
<rect x="0.666626" width="21.3333" height="14.6667" fill="#EEF3F8"/>
<rect x="0.666626" width="12" height="9.33333" fill="#41479B"/>
<rect x="12.6666" width="9.33333" height="1.33333" fill="#DC251C"/>
<rect x="12.6666" y="2.66666" width="9.33333" height="1.33333" fill="#DC251C"/>
<rect x="12.6666" y="5.33334" width="9.33333" height="1.33333" fill="#DC251C"/>
<rect x="12.6666" y="8" width="9.33333" height="1.33333" fill="#DC251C"/>
<rect x="0.666626" y="10.6667" width="21.3333" height="1.33333" fill="#DC251C"/>
<rect x="0.666626" y="13.3333" width="21.3333" height="1.33333" fill="#DC251C"/>
<rect x="2" y="1.33334" width="1.33333" height="1.33333" fill="#C5D0EC"/>
<rect x="4.66663" y="1.33334" width="1.33333" height="1.33333" fill="#C5D0EC"/>
<rect x="7.33337" y="1.33334" width="1.33333" height="1.33333" fill="#C5D0EC"/>
<rect x="10" y="1.33334" width="1.33333" height="1.33333" fill="#C5D0EC"/>
<rect x="2" y="4" width="1.33333" height="1.33333" fill="#C5D0EC"/>
<rect x="4.66663" y="4" width="1.33333" height="1.33333" fill="#C5D0EC"/>
<rect x="7.33337" y="4" width="1.33333" height="1.33333" fill="#C5D0EC"/>
<rect x="3.33337" y="5.33334" width="1.33333" height="1.33333" fill="#C5D0EC"/>
<rect x="6" y="5.33334" width="1.33333" height="1.33333" fill="#C5D0EC"/>
<rect x="8.66663" y="5.33334" width="1.33333" height="1.33333" fill="#C5D0EC"/>
<rect x="3.33337" y="2.66669" width="1.33333" height="1.33333" fill="#C5D0EC"/>
<rect x="6" y="2.66669" width="1.33333" height="1.33333" fill="#C5D0EC"/>
<rect x="8.66663" y="2.66669" width="1.33333" height="1.33333" fill="#C5D0EC"/>
<rect x="10" y="4" width="1.33333" height="1.33333" fill="#C5D0EC"/>
<rect x="2" y="6.66669" width="1.33333" height="1.33333" fill="#C5D0EC"/>
<rect x="4.66663" y="6.66669" width="1.33333" height="1.33333" fill="#C5D0EC"/>
<rect x="7.33337" y="6.66669" width="1.33333" height="1.33333" fill="#C5D0EC"/>
<rect x="10" y="6.66669" width="1.33333" height="1.33333" fill="#C5D0EC"/>
</svg>
