<svg width="24" height="18" viewBox="0 0 24 18" fill="none" xmlns="http://www.w3.org/2000/svg">
<path d="M23.5234 8.54901C20.9841 3.1999 17.1457 0.507935 12.0002 0.507935C6.85194 0.507935 3.01623 3.1999 0.47694 8.55169C0.375089 8.76735 0.322266 9.00291 0.322266 9.24142C0.322266 9.47993 0.375089 9.71548 0.47694 9.93115C3.01623 15.2803 6.85462 17.9722 12.0002 17.9722C17.1484 17.9722 20.9841 15.2803 23.5234 9.92847C23.7296 9.49454 23.7296 8.99097 23.5234 8.54901ZM12.0002 16.0436C7.67962 16.0436 4.51623 13.8526 2.28498 9.24008C4.51623 4.62758 7.67962 2.43651 12.0002 2.43651C16.3207 2.43651 19.4841 4.62758 21.7153 9.24008C19.4868 13.8526 16.3234 16.0436 12.0002 16.0436ZM11.893 4.52579C9.28944 4.52579 7.17873 6.63651 7.17873 9.24008C7.17873 11.8436 9.28944 13.9544 11.893 13.9544C14.4966 13.9544 16.6073 11.8436 16.6073 9.24008C16.6073 6.63651 14.4966 4.52579 11.893 4.52579ZM11.893 12.2401C10.235 12.2401 8.89301 10.8981 8.89301 9.24008C8.89301 7.58204 10.235 6.24008 11.893 6.24008C13.551 6.24008 14.893 7.58204 14.893 9.24008C14.893 10.8981 13.551 12.2401 11.893 12.2401Z" fill="#2F54EB"/>
</svg>
