<svg width="252" height="251" viewBox="0 0 252 251" fill="none" xmlns="http://www.w3.org/2000/svg">
<g clip-path="url(#clip0)">
<rect width="251.744" height="250" transform="translate(0.128174 0.177734)" fill="white"/>
<g clip-path="url(#clip1)">
<path d="M28.27 23.1342C28.27 20.9491 30.0414 19.1777 32.2265 19.1777H219.99C222.175 19.1777 223.946 20.9491 223.946 23.1342V32.5307H28.27V23.1342Z" fill="#D9D9D9"/>
<path fill-rule="evenodd" clip-rule="evenodd" d="M34.6992 28.0797C35.7917 28.0797 36.6774 27.194 36.6774 26.1015C36.6774 25.009 35.7917 24.1233 34.6992 24.1233C33.6066 24.1233 32.7209 25.009 32.7209 26.1015C32.7209 27.194 33.6066 28.0797 34.6992 28.0797Z" fill="white"/>
<path fill-rule="evenodd" clip-rule="evenodd" d="M40.6337 28.0797C41.7263 28.0797 42.612 27.194 42.612 26.1015C42.612 25.009 41.7263 24.1233 40.6337 24.1233C39.5412 24.1233 38.6555 25.009 38.6555 26.1015C38.6555 27.194 39.5412 28.0797 40.6337 28.0797Z" fill="white"/>
<path fill-rule="evenodd" clip-rule="evenodd" d="M46.5681 28.0797C47.6606 28.0797 48.5463 27.194 48.5463 26.1015C48.5463 25.009 47.6606 24.1233 46.5681 24.1233C45.4755 24.1233 44.5898 25.009 44.5898 26.1015C44.5898 27.194 45.4755 28.0797 46.5681 28.0797Z" fill="white"/>
</g>
<rect x="29.27" y="20.1777" width="194" height="106" rx="3" stroke="#D9D9D9" stroke-width="2"/>
<path fill-rule="evenodd" clip-rule="evenodd" d="M57.8191 92.6267C60.7423 93.9592 63.5009 94.3999 64.6993 93.8692C67.7043 92.5386 66.3929 80.2873 63.3507 75.8385C60.3085 71.3897 47.6331 71.1631 48.2563 80.7931C48.4726 84.1354 50.1574 86.893 52.391 89.0136L51.1978 106.692L61.1883 105.184L57.8191 92.6267Z" fill="#D6E4FF"/>
<path fill-rule="evenodd" clip-rule="evenodd" d="M51.9044 91.2761C49.8689 85.494 45.7639 81.9626 45.9601 79.2113C46.1563 76.4601 48.4337 75.4531 48.4337 75.4531C48.4337 75.4531 48.963 69.9775 55.7263 69.7627C62.4896 69.5479 66.9419 71.8951 66.0393 78.6744C64.4257 78.9179 62.3959 78.5872 59.8424 80.0638C58.627 80.7667 58.422 83.4998 58.422 83.4998L57.2048 83.6835C57.2048 83.6835 55.021 80.8062 53.4076 81.8996C51.7943 82.993 53.1546 86.067 53.1546 86.067L53.1994 91.0807L51.9044 91.2761Z" fill="#434343"/>
<path fill-rule="evenodd" clip-rule="evenodd" d="M54.7749 142.13L86.0104 198.027L109.428 245.284H114.472L75.2354 142.13L54.7749 142.13Z" fill="#D6E4FF"/>
<path fill-rule="evenodd" clip-rule="evenodd" d="M108.769 243.124C107.625 242.723 106.288 243.19 105.963 244.358C105.782 245.008 105.639 245.667 105.639 246.118C105.639 247.336 106.018 249.671 106.018 249.671C107.337 249.671 129.727 249.671 129.727 249.671C129.727 249.671 130.651 246.4 128.66 246.139C126.668 245.879 125.351 245.669 125.351 245.669L114.912 240.687C114.386 240.436 113.758 240.686 113.548 241.23L113.064 242.489C113.064 242.489 111.22 243.409 110.068 243.409C109.707 243.409 109.24 243.289 108.769 243.124Z" fill="#D9D9D9"/>
<path fill-rule="evenodd" clip-rule="evenodd" d="M102.924 237.716L112.652 234.567C112.652 234.567 106.259 214.111 96.9814 189.544C87.7039 164.978 77.0541 142.13 77.0541 142.13H49.5811C49.5811 142.13 61.4214 171.032 74.6858 194.652C87.9501 218.272 102.924 237.716 102.924 237.716Z" fill="#BFBFBF"/>
<path fill-rule="evenodd" clip-rule="evenodd" d="M52.7222 142.13C49.7742 161.773 44.0882 186.868 43.5516 187.643C43.1939 188.159 30.3153 192.779 4.91602 201.501L6.00557 206.262C36.2942 201.584 52.2537 197.955 53.8842 195.374C56.3298 191.503 68.5411 160.922 73.2708 142.13H52.7222Z" fill="#D6E4FF"/>
<path fill-rule="evenodd" clip-rule="evenodd" d="M13.8445 197.385L15.7636 205.053C38.4177 207.18 52.2984 205.643 57.4057 200.443C62.5129 195.243 68.3337 175.805 74.8679 142.13H48.6707C44.5308 169.705 42.2163 184.072 41.7272 185.229C41.2382 186.387 31.9439 190.439 13.8445 197.385Z" fill="#D9D9D9"/>
<path fill-rule="evenodd" clip-rule="evenodd" d="M6.60895 201.752C6.79059 200.626 6.15657 199.493 5.04125 199.347C4.37852 199.261 3.70054 199.215 3.2621 199.298C2.14233 199.509 0.0598357 200.314 0.0598357 200.314C0.288887 201.704 4.17687 225.307 4.17687 225.307C4.17687 225.307 7.34622 225.713 7.24037 223.569C7.13452 221.425 7.09916 220 7.09916 220L9.90335 207.985C10.0283 207.45 9.70682 206.922 9.18062 206.798L7.89093 206.494C7.89093 206.494 6.72389 204.711 6.52377 203.496C6.4482 203.037 6.50677 202.386 6.60895 201.752Z" fill="#D9D9D9"/>
<path fill-rule="evenodd" clip-rule="evenodd" d="M84.3264 102.461L70.9866 113.112L77.1247 118.437L86.2765 106.563C91.5935 104.097 93.9665 102.522 93.3954 101.838C92.9139 101.261 92.2747 101.38 91.6859 101.489C91.2272 101.575 90.7992 101.654 90.5001 101.395C89.8171 100.802 90.6377 98.2465 91.5132 95.8566C92.3888 93.4667 91.1679 93.8475 90.497 94.2734C88.3862 96.3151 86.3293 99.0443 84.3264 102.461ZM100.41 112.155L94.5514 116.844L95.8053 123.607C95.8053 123.607 99.5001 119.811 102.898 118.222C107.231 116.196 108.921 114.893 110.731 111.555C111.7 109.77 112.277 106.386 111.017 105.503C110.534 105.164 109.055 106.36 107.546 107.58C106.396 108.51 105.228 109.454 104.47 109.744C103.451 110.134 103.383 108.658 103.329 107.479C103.29 106.633 103.258 105.94 102.886 106.198C101.033 106.512 100.41 112.155 100.41 112.155Z" fill="#D6E4FF"/>
<path fill-rule="evenodd" clip-rule="evenodd" d="M63.7031 112.287C68.7565 111.466 75.3553 109.303 81.9157 103.324L85.6273 109.648C81.351 115.674 74.9345 121.063 68.8037 121.801C63.9724 122.382 60.6972 116.522 63.7031 112.287Z" fill="#597EF7"/>
<path fill-rule="evenodd" clip-rule="evenodd" d="M56.1076 160.595C51.2085 160.649 46.7068 160.699 44.1593 161.647C39.8822 151.872 41.4808 145.07 42.9566 138.79C43.8461 135.006 44.6909 131.411 44.1778 127.47C42.6836 115.993 48.9797 97.0302 50.2463 96.8391L61.7964 95.0963C63.2423 102.12 66.4528 109.476 69.6838 116.88C70.4384 118.609 71.194 120.34 71.9286 122.071C80.5896 122.844 98.2993 112.932 98.2993 112.932C98.2993 112.932 104.369 122.642 104.594 127.132C94.5395 134.836 85.595 138.943 77.9577 140.278C78.838 145.107 78.8908 149.82 77.5859 154.331C75.8375 160.375 65.2765 160.493 56.1076 160.595Z" fill="#85A5FF"/>
<path fill-rule="evenodd" clip-rule="evenodd" d="M178.939 70.9366C184.123 70.2531 188.808 73.9109 189.402 79.1066L190.519 88.8744C191.058 93.5872 188.046 97.9465 183.613 99.2261C183.615 99.265 183.617 99.3041 183.62 99.3434L171.52 100.938C169.397 99.2051 169.788 86.4096 170.565 80.4788C170.57 75.7275 174.123 71.5714 178.939 70.9366Z" fill="#434343"/>
<path fill-rule="evenodd" clip-rule="evenodd" d="M181.221 92.5068C178.719 94.6061 176.16 95.7983 174.875 95.6188C171.652 95.1686 169.965 82.9703 171.831 77.8277C173.697 72.6851 185.886 68.9441 187.606 78.4191C188.202 81.7075 187.24 84.8394 185.593 87.5084L191.008 104.253L180.994 105.573L181.221 92.5068Z" fill="#D6E4FF"/>
<path fill-rule="evenodd" clip-rule="evenodd" d="M188.937 78.3003C188.611 78.0308 188.295 77.7702 187.986 77.5405L187.96 77.1916C187.96 77.1916 184.029 70.7189 179.198 71.3558C174.371 71.9921 173.119 74.5955 172.054 76.8086L172.052 76.8145C173.015 79.2181 175.176 79.957 177.621 80.7928C178.673 81.1525 179.777 81.5302 180.861 82.0663C181.217 81.6711 181.696 81.399 182.244 81.3268C183.512 81.1597 184.665 82.124 184.82 83.4806C184.975 84.8372 184.074 86.0724 182.806 86.2394C182.771 86.244 182.736 86.2478 182.702 86.2507C182.847 91.6163 183.725 97.6499 185.264 98.9067L197.364 97.3116C196.972 90.8061 195.2 89.1691 193.39 87.4964C191.686 85.9225 189.948 84.317 189.294 78.5942C189.173 78.4958 189.054 78.3975 188.937 78.3003Z" fill="#434343"/>
<path fill-rule="evenodd" clip-rule="evenodd" d="M202.84 142.13C202.082 153.203 153.253 185.805 152.968 186.719C152.778 187.329 168.166 225.273 168.166 225.273L163.898 227.048C163.898 227.048 140.295 186.863 141.507 182.581C143.243 176.451 179.393 142.248 179.393 142.248L202.84 142.13Z" fill="#D6E4FF"/>
<path fill-rule="evenodd" clip-rule="evenodd" d="M167.043 219.56L160.074 222.276C145.38 204.528 139.62 189.885 140.67 182.424C141.72 174.963 178.425 142.157 178.425 142.157L203.339 142.157C202.489 167.801 157.231 186.817 156.626 187.91C156.02 189.003 161.978 199.706 167.043 219.56Z" fill="#597EF7"/>
<path fill-rule="evenodd" clip-rule="evenodd" d="M167.496 225.282C168.426 224.494 169.81 224.454 170.488 225.43C170.869 225.978 171.218 226.549 171.363 226.977C171.752 228.121 172.142 230.454 172.142 230.454C170.903 230.936 149.863 239.134 149.863 239.134C149.863 239.134 147.95 236.399 149.738 235.425C151.525 234.451 152.696 233.771 152.696 233.771L160.927 225.254C161.335 224.832 161.995 224.841 162.365 225.274L163.227 226.284C163.227 226.284 165.253 226.474 166.336 226.053C166.684 225.917 167.097 225.621 167.496 225.282Z" fill="#D9D9D9"/>
<path fill-rule="evenodd" clip-rule="evenodd" d="M197.225 142.13L218.977 198.027L240.356 245.284H235.312L180.128 142.13H197.225Z" fill="#D6E4FF"/>
<path fill-rule="evenodd" clip-rule="evenodd" d="M238.232 243.124C239.376 242.723 240.713 243.19 241.038 244.358C241.219 245.008 241.363 245.667 241.363 246.118C241.363 247.336 240.984 249.671 240.984 249.671C239.665 249.671 217.275 249.671 217.275 249.671C217.275 249.671 216.351 246.4 218.342 246.139C220.333 245.879 221.65 245.669 221.65 245.669L232.09 240.687C232.616 240.436 233.244 240.686 233.453 241.23L233.938 242.489C233.938 242.489 235.781 243.409 236.934 243.409C237.295 243.409 237.761 243.289 238.232 243.124Z" fill="#D9D9D9"/>
<path fill-rule="evenodd" clip-rule="evenodd" d="M238.425 235.467L227.218 237.716C218.552 224.079 182.285 168.161 178.309 142.13H203.26C216.539 160.948 230.165 221.604 238.425 235.467Z" fill="#85A5FF"/>
<path fill-rule="evenodd" clip-rule="evenodd" d="M142.87 128.598L158.801 133.712L154.73 140.968L142.345 133.168C136.563 132.802 133.831 132.193 134.149 131.34C134.418 130.621 135.056 130.498 135.644 130.385C136.103 130.297 136.53 130.215 136.729 129.862C137.181 129.054 135.596 126.954 134.011 125.029C132.426 123.105 133.695 123.014 134.461 123.168C137.096 124.313 139.898 126.122 142.87 128.598ZM211.803 130.555L220.145 127.612C227.814 143.207 232.296 151.716 233.591 153.139C234.541 154.183 239.924 156.483 243.519 157.617C244.962 158.072 244.81 159.351 244.453 159.8C242.204 162.636 239.747 162.07 237.072 161.454C236.298 161.275 235.505 161.093 234.694 160.987C232.595 160.714 232.103 161.917 231.638 163.054C231.227 164.061 230.837 165.016 229.371 164.849C229.401 164.541 229.443 164.195 229.487 163.821C229.775 161.408 230.2 157.848 228.755 156.003C228.013 155.056 222.363 146.574 211.803 130.555Z" fill="#D6E4FF"/>
<path fill-rule="evenodd" clip-rule="evenodd" d="M184.442 97.562L180.758 97.3753C173.833 106.571 172.868 126.597 167.928 129.882C163.258 132.988 155.967 131.539 147.258 129.433L145.402 135.881C153.986 143.66 170.983 148.948 177.045 143.851C186.736 135.702 186.387 111.206 184.442 97.562Z" fill="#BFBFBF"/>
<path fill-rule="evenodd" clip-rule="evenodd" d="M205.72 144.021C205.72 144.021 184.021 146.881 173.797 148.229C172.338 148.421 172.355 146.13 172.436 144.965C173.368 131.514 181.249 116.107 179.112 97.4164L188.143 94.6569C197.259 106.765 201.739 122.561 205.72 144.021Z" fill="#8C8C8C"/>
<path fill-rule="evenodd" clip-rule="evenodd" d="M188.632 94.5925L188.737 94.5786C210.948 105.479 225.845 124.952 233.428 152.998L226.897 155.282C221.832 150.339 215.328 142.014 207.383 130.307C210.245 137.613 212.591 145.184 213.885 152.464L185.15 156.253C177.866 141.938 185.091 95.0592 185.091 95.0592L187.075 94.7977L188.632 94.5925Z" fill="#D9D9D9"/>
<path fill-rule="evenodd" clip-rule="evenodd" d="M110.256 95.8719C110.255 95.8746 110.255 95.8773 110.254 95.8807C110.255 95.8778 110.255 95.8675 110.256 95.8719Z" fill="#C5CFD6"/>
<path fill-rule="evenodd" clip-rule="evenodd" d="M110.254 95.8762C110.254 95.8767 110.254 95.8778 110.254 95.8788C110.254 95.8764 110.256 95.8679 110.254 95.8762Z" fill="#C5CFD6"/>
<path fill-rule="evenodd" clip-rule="evenodd" d="M110.261 95.8304C110.26 95.8411 110.258 95.8515 110.256 95.8623C110.257 95.8569 110.258 95.8525 110.259 95.8471C110.241 95.9878 110.252 95.8965 110.261 95.8304Z" fill="#C5CFD6"/>
<path fill-rule="evenodd" clip-rule="evenodd" d="M110.257 95.8627C110.256 95.8677 110.256 95.8731 110.255 95.878C110.248 95.9091 110.257 95.8627 110.257 95.8627Z" fill="#C5CFD6"/>
<path fill-rule="evenodd" clip-rule="evenodd" d="M110.255 95.8763C110.255 95.8758 110.255 95.8758 110.255 95.8752C110.255 95.8758 110.255 95.8758 110.255 95.8763Z" fill="#C5CFD6"/>
<path fill-rule="evenodd" clip-rule="evenodd" d="M110.253 95.8804C110.252 95.887 110.261 95.8543 110.253 95.8804V95.8804Z" fill="#C5CFD6"/>
<path fill-rule="evenodd" clip-rule="evenodd" d="M110.254 95.8763L110.255 95.8751C110.255 95.8757 110.255 95.8762 110.254 95.8763Z" fill="#C5CFD6"/>
<rect width="47.4421" height="33.3386" rx="4" transform="matrix(0.965988 -0.258586 0.226206 0.974079 81.0791 75.5712)" fill="#85A5FF"/>
<path fill-rule="evenodd" clip-rule="evenodd" d="M100.602 80.4181L92.7554 107.082L119.19 100.006L100.602 80.4181Z" fill="black" fill-opacity="0.2"/>
<path fill-rule="evenodd" clip-rule="evenodd" d="M115.668 82.9646L107.916 103.024L131.285 96.768L115.668 82.9646Z" fill="black" fill-opacity="0.2"/>
<path fill-rule="evenodd" clip-rule="evenodd" d="M120.721 81.8526C123.126 81.209 124.589 78.5944 123.989 76.0128C123.39 73.4313 120.955 71.8603 118.55 72.5039C116.146 73.1476 114.683 75.7622 115.282 78.3437C115.882 80.9253 118.317 82.4963 120.721 81.8526Z" fill="white"/>
</g>
<defs>
<clipPath id="clip0">
<rect width="251.744" height="250" fill="white" transform="translate(0.128174 0.177734)"/>
</clipPath>
<clipPath id="clip1">
</clipPath>
</defs>
</svg>
