<svg width="495" height="278" viewBox="0 0 495 278" fill="none" xmlns="http://www.w3.org/2000/svg">
<g clip-path="url(#clip0)">
<rect x="2.38892" y="2" width="490.222" height="274" rx="6" fill="#E6F7FF"/>
<rect x="248.525" y="1.02583" width="245.06" height="275.949" fill="#F8F8F8"/>
<path d="M253.651 6.15295L488.458 271.849" stroke="#E7E7E7" stroke-width="2.05068"/>
<path d="M488.458 6.15295L253.651 271.849" stroke="#E7E7E7" stroke-width="2.05068"/>
<rect x="248.525" y="1.02583" width="245.06" height="275.949" stroke="#E7E7E7" stroke-width="2.05068"/>
<path d="M36.4127 81.6378V70.6578H39.5121C40.4673 70.6578 41.3119 70.8689 42.046 71.2912C42.78 71.7136 43.3456 72.3143 43.7427 73.0936C44.1449 73.8729 44.3485 74.7678 44.3536 75.7783V76.4796C44.3536 77.5153 44.1525 78.4227 43.7503 79.202C43.3531 79.9813 42.7825 80.5795 42.0384 80.9968C41.2994 81.4141 40.4372 81.6278 39.4518 81.6378H36.4127ZM37.8606 71.8493V80.4538H39.3839C40.5 80.4538 41.3672 80.1069 41.9856 79.4132C42.609 78.7194 42.9207 77.7315 42.9207 76.4494V75.8084C42.9207 74.5616 42.6266 73.5938 42.0384 72.9051C41.4552 72.2113 40.6257 71.8594 39.5498 71.8493H37.8606ZM54.9942 76.5022C54.9942 77.5781 54.8133 78.5183 54.4513 79.3227C54.0893 80.122 53.5765 80.7329 52.9129 81.1552C52.2492 81.5775 51.475 81.7886 50.5902 81.7886C49.7254 81.7886 48.9587 81.5775 48.2901 81.1552C47.6214 80.7278 47.1011 80.122 46.7291 79.3377C46.3621 78.5484 46.1735 77.6359 46.1635 76.6003V75.8084C46.1635 74.7527 46.347 73.8201 46.714 73.0106C47.081 72.2012 47.5988 71.5828 48.2675 71.1555C48.9412 70.7231 49.7104 70.507 50.5751 70.507C51.4549 70.507 52.2291 70.7206 52.8978 71.148C53.5715 71.5703 54.0893 72.1861 54.4513 72.9956C54.8133 73.8 54.9942 74.7376 54.9942 75.8084V76.5022ZM53.5539 75.7934C53.5539 74.4912 53.2924 73.4933 52.7696 72.7995C52.2467 72.1007 51.5152 71.7513 50.5751 71.7513C49.6601 71.7513 48.9386 72.1007 48.4108 72.7995C47.8879 73.4933 47.6189 74.4586 47.6038 75.6953V76.5022C47.6038 77.7641 47.8678 78.7571 48.3957 79.481C48.9286 80.2 49.6601 80.5594 50.5902 80.5594C51.5253 80.5594 52.2492 80.2201 52.762 79.5414C53.2748 78.8576 53.5388 77.8798 53.5539 76.6078V75.7934ZM59.5341 78.1764L59.7452 79.6243L60.0544 78.3197L62.2263 70.6578H63.448L65.5671 78.3197L65.8687 79.6469L66.1025 78.1689L67.8068 70.6578H69.2623L66.6002 81.6378H65.2805L63.0181 73.6366L62.8447 72.7995L62.6712 73.6366L60.3259 81.6378H59.0062L56.3517 70.6578H57.7996L59.5341 78.1764ZM79.3147 81.6378H77.8593L72.3315 73.1766V81.6378H70.8761V70.6578H72.3315L77.8743 79.1568V70.6578H79.3147V81.6378ZM83.3417 80.4538H88.5452V81.6378H81.8863V70.6578H83.3417V80.4538ZM98.1452 76.5022C98.1452 77.5781 97.9642 78.5183 97.6022 79.3227C97.2402 80.122 96.7274 80.7329 96.0638 81.1552C95.4002 81.5775 94.6259 81.7886 93.7411 81.7886C92.8764 81.7886 92.1097 81.5775 91.441 81.1552C90.7724 80.7278 90.252 80.122 89.88 79.3377C89.513 78.5484 89.3244 77.6359 89.3144 76.6003V75.8084C89.3144 74.7527 89.4979 73.8201 89.8649 73.0106C90.2319 72.2012 90.7497 71.5828 91.4184 71.1555C92.0921 70.7231 92.8613 70.507 93.726 70.507C94.6058 70.507 95.3801 70.7206 96.0487 71.148C96.7224 71.5703 97.2402 72.1861 97.6022 72.9956C97.9642 73.8 98.1452 74.7376 98.1452 75.8084V76.5022ZM96.7048 75.7934C96.7048 74.4912 96.4434 73.4933 95.9205 72.7995C95.3977 72.1007 94.6662 71.7513 93.726 71.7513C92.811 71.7513 92.0896 72.1007 91.5617 72.7995C91.0388 73.4933 90.7698 74.4586 90.7548 75.6953V76.5022C90.7548 77.7641 91.0187 78.7571 91.5466 79.481C92.0795 80.2 92.811 80.5594 93.7411 80.5594C94.6762 80.5594 95.4002 80.2201 95.913 79.5414C96.4258 78.8576 96.6897 77.8798 96.7048 76.6078V75.7934ZM106.214 78.7721H101.614L100.581 81.6378H99.0878L103.281 70.6578H104.548L108.748 81.6378H107.263L106.214 78.7721ZM102.052 77.5806H105.784L103.914 72.4451L102.052 77.5806ZM110.226 81.6378V70.6578H113.326C114.281 70.6578 115.126 70.8689 115.86 71.2912C116.594 71.7136 117.159 72.3143 117.556 73.0936C117.959 73.8729 118.162 74.7678 118.167 75.7783V76.4796C118.167 77.5153 117.966 78.4227 117.564 79.202C117.167 79.9813 116.596 80.5795 115.852 80.9968C115.113 81.4141 114.251 81.6278 113.265 81.6378H110.226ZM111.674 71.8493V80.4538H113.197C114.314 80.4538 115.181 80.1069 115.799 79.4132C116.423 78.7194 116.734 77.7315 116.734 76.4494V75.8084C116.734 74.5616 116.44 73.5938 115.852 72.9051C115.269 72.2113 114.439 71.8594 113.363 71.8493H111.674ZM132.299 80.1974C131.927 80.7304 131.407 81.13 130.738 81.3965C130.075 81.6579 129.301 81.7886 128.416 81.7886C127.521 81.7886 126.726 81.58 126.033 81.1627C125.339 80.7404 124.801 80.1421 124.419 79.3679C124.042 78.5937 123.848 77.6963 123.838 76.6757V75.718C123.838 74.0639 124.223 72.7819 124.992 71.8719C125.766 70.9619 126.852 70.507 128.25 70.507C129.396 70.507 130.319 70.8011 131.017 71.3893C131.716 71.9725 132.144 72.802 132.299 73.8779H130.851C130.58 72.4249 129.715 71.6985 128.257 71.6985C127.287 71.6985 126.55 72.0403 126.048 72.7241C125.55 73.4028 125.299 74.3882 125.294 75.6802V76.5777C125.294 77.8094 125.575 78.7897 126.138 79.5187C126.701 80.2427 127.463 80.6047 128.423 80.6047C128.966 80.6047 129.441 80.5443 129.849 80.4237C130.256 80.303 130.593 80.0994 130.859 79.8128V77.3469H128.318V76.1704H132.299V80.1974ZM142.45 70.6578V78.1236C142.445 79.1593 142.118 80.0064 141.47 80.665C140.826 81.3236 139.951 81.6931 138.845 81.7736L138.461 81.7886C137.259 81.7886 136.301 81.4644 135.587 80.8158C134.873 80.1673 134.512 79.2749 134.501 78.1387V70.6578H135.934V78.0934C135.934 78.8878 136.153 79.5062 136.59 79.9486C137.028 80.386 137.651 80.6047 138.461 80.6047C139.28 80.6047 139.906 80.386 140.338 79.9486C140.776 79.5112 140.994 78.8953 140.994 78.101V70.6578H142.45ZM146.288 81.6378H144.84V70.6578H146.288V81.6378ZM148.943 81.6378V70.6578H152.042C152.998 70.6578 153.842 70.8689 154.576 71.2912C155.31 71.7136 155.876 72.3143 156.273 73.0936C156.675 73.8729 156.879 74.7678 156.884 75.7783V76.4796C156.884 77.5153 156.683 78.4227 156.281 79.202C155.883 79.9813 155.313 80.5795 154.569 80.9968C153.83 81.4141 152.967 81.6278 151.982 81.6378H148.943ZM150.391 71.8493V80.4538H151.914C153.03 80.4538 153.897 80.1069 154.516 79.4132C155.139 78.7194 155.451 77.7315 155.451 76.4494V75.8084C155.451 74.5616 155.157 73.5938 154.569 72.9051C153.985 72.2113 153.156 71.8594 152.08 71.8493H150.391ZM165.285 76.5626H160.526V80.4538H166.054V81.6378H159.078V70.6578H165.979V71.8493H160.526V75.3786H165.285V76.5626Z" fill="black"/>
<rect width="177.611" height="37.2429" transform="translate(35.1382 95.2795)" fill="#E6F7FF"/>
<path d="M36.1392 107.419L36.4988 103.891H40.1238V104.722H37.2617L37.0479 106.651C37.3945 106.447 37.7881 106.345 38.2287 106.345C38.8733 106.345 39.3852 106.559 39.7642 106.986C40.1432 107.411 40.3327 107.986 40.3327 108.711C40.3327 109.44 40.1351 110.015 39.7399 110.437C39.3479 110.854 38.7988 111.063 38.0926 111.063C37.4674 111.063 36.9572 110.89 36.5619 110.543C36.1667 110.197 35.9416 109.717 35.8865 109.105H36.7369C36.792 109.51 36.9361 109.816 37.1694 110.023C37.4026 110.228 37.7104 110.33 38.0926 110.33C38.5105 110.33 38.8377 110.187 39.0742 109.902C39.3139 109.617 39.4338 109.223 39.4338 108.721C39.4338 108.248 39.3042 107.869 39.045 107.584C38.7891 107.296 38.4473 107.152 38.0197 107.152C37.6277 107.152 37.32 107.238 37.0965 107.409L36.8584 107.604L36.1392 107.419ZM48.0152 107.696H44.949V110.203H48.5109V110.966H44.0161V103.891H48.4623V104.659H44.949V106.933H48.0152V107.696ZM53.5791 109.12H50.6149L49.9492 110.966H48.9871L51.6888 103.891H52.5052L55.2118 110.966H54.2545L53.5791 109.12ZM50.8968 108.352H53.3021L52.097 105.043L50.8968 108.352ZM58.2488 107.813C57.4487 107.583 56.8656 107.301 56.4995 106.967C56.1367 106.63 55.9553 106.215 55.9553 105.723C55.9553 105.166 56.1772 104.706 56.621 104.343C57.068 103.977 57.6479 103.794 58.3606 103.794C58.8465 103.794 59.279 103.888 59.658 104.076C60.0403 104.264 60.3351 104.523 60.5424 104.853C60.753 105.184 60.8582 105.545 60.8582 105.937H59.9204C59.9204 105.509 59.7844 105.174 59.5122 104.931C59.2401 104.685 58.8562 104.562 58.3606 104.562C57.9006 104.562 57.541 104.664 57.2818 104.868C57.0259 105.069 56.898 105.349 56.898 105.708C56.898 105.997 57.0194 106.241 57.2624 106.442C57.5086 106.64 57.9249 106.821 58.5112 106.986C59.1008 107.152 59.5608 107.335 59.8913 107.536C60.2249 107.733 60.4711 107.965 60.6299 108.23C60.7918 108.496 60.8728 108.809 60.8728 109.168C60.8728 109.742 60.6493 110.202 60.2022 110.548C59.7552 110.892 59.1575 111.063 58.4092 111.063C57.9233 111.063 57.4697 110.971 57.0486 110.786C56.6275 110.599 56.3019 110.343 56.0719 110.019C55.8451 109.695 55.7317 109.327 55.7317 108.916H56.6696C56.6696 109.343 56.8267 109.682 57.1409 109.931C57.4584 110.177 57.8811 110.3 58.4092 110.3C58.9016 110.3 59.279 110.2 59.5414 109.999C59.8038 109.798 59.935 109.525 59.935 109.178C59.935 108.831 59.8135 108.564 59.5705 108.376C59.3276 108.185 58.887 107.997 58.2488 107.813ZM64.2306 107.443L66.0771 103.891H67.1364L64.6971 108.328V110.966H63.7641V108.328L61.3247 103.891H62.3938L64.2306 107.443ZM72.0443 108.736L72.1803 109.669L72.3796 108.828L73.779 103.891H74.5662L75.9317 108.828L76.126 109.683L76.2767 108.731L77.3749 103.891H78.3127L76.5974 110.966H75.747L74.2892 105.811L74.1775 105.271L74.0657 105.811L72.5545 110.966H71.7041L69.9937 103.891H70.9266L72.0443 108.736ZM83.0456 109.12H80.0815L79.4158 110.966H78.4536L81.1554 103.891H81.9717L84.6783 110.966H83.7211L83.0456 109.12ZM80.3633 108.352H82.7687L81.5636 105.043L80.3633 108.352ZM87.3315 107.443L89.178 103.891H90.2373L87.798 108.328V110.966H86.865V108.328L84.4257 103.891H85.4947L87.3315 107.443ZM93.1578 107.813C92.3576 107.583 91.7745 107.301 91.4084 106.967C91.0456 106.63 90.8642 106.215 90.8642 105.723C90.8642 105.166 91.0861 104.706 91.5299 104.343C91.977 103.977 92.5568 103.794 93.2695 103.794C93.7554 103.794 94.1879 103.888 94.5669 104.076C94.9492 104.264 95.244 104.523 95.4513 104.853C95.6619 105.184 95.7672 105.545 95.7672 105.937H94.8293C94.8293 105.509 94.6933 105.174 94.4212 104.931C94.149 104.685 93.7652 104.562 93.2695 104.562C92.8095 104.562 92.4499 104.664 92.1908 104.868C91.9348 105.069 91.8069 105.349 91.8069 105.708C91.8069 105.997 91.9284 106.241 92.1713 106.442C92.4175 106.64 92.8338 106.821 93.4202 106.986C94.0097 107.152 94.4698 107.335 94.8002 107.536C95.1339 107.733 95.3801 107.965 95.5388 108.23C95.7008 108.496 95.7818 108.809 95.7818 109.168C95.7818 109.742 95.5582 110.202 95.1112 110.548C94.6641 110.892 94.0664 111.063 93.3181 111.063C92.8322 111.063 92.3787 110.971 91.9575 110.786C91.5364 110.599 91.2108 110.343 90.9808 110.019C90.754 109.695 90.6407 109.327 90.6407 108.916H91.5785C91.5785 109.343 91.7356 109.682 92.0498 109.931C92.3673 110.177 92.7901 110.3 93.3181 110.3C93.8105 110.3 94.1879 110.2 94.4503 109.999C94.7127 109.798 94.8439 109.525 94.8439 109.178C94.8439 108.831 94.7224 108.564 94.4795 108.376C94.2365 108.185 93.7959 107.997 93.1578 107.813ZM104.145 104.659H101.87V110.966H100.942V104.659H98.673V103.891H104.145V104.659ZM110.5 107.657C110.5 108.35 110.384 108.956 110.151 109.474C109.917 109.989 109.587 110.383 109.159 110.655C108.732 110.927 108.233 111.063 107.663 111.063C107.105 111.063 106.611 110.927 106.181 110.655C105.75 110.38 105.414 109.989 105.175 109.484C104.938 108.976 104.817 108.388 104.81 107.72V107.21C104.81 106.53 104.928 105.929 105.165 105.407C105.401 104.886 105.735 104.487 106.166 104.212C106.6 103.933 107.096 103.794 107.653 103.794C108.22 103.794 108.719 103.932 109.15 104.207C109.584 104.479 109.917 104.876 110.151 105.397C110.384 105.916 110.5 106.52 110.5 107.21V107.657ZM109.572 107.2C109.572 106.361 109.404 105.718 109.067 105.271C108.73 104.821 108.259 104.596 107.653 104.596C107.063 104.596 106.598 104.821 106.258 105.271C105.921 105.718 105.748 106.34 105.738 107.137V107.657C105.738 108.47 105.908 109.11 106.249 109.576C106.592 110.04 107.063 110.271 107.663 110.271C108.265 110.271 108.732 110.053 109.062 109.615C109.393 109.175 109.563 108.545 109.572 107.725V107.2ZM119.062 104.659H116.788V110.966H115.86V104.659H113.591V103.891H119.062V104.659ZM125.093 103.891V108.702C125.09 109.369 124.879 109.915 124.461 110.339C124.046 110.764 123.483 111.002 122.77 111.054L122.522 111.063C121.748 111.063 121.131 110.854 120.671 110.437C120.211 110.019 119.978 109.444 119.971 108.711V103.891H120.894V108.682C120.894 109.194 121.035 109.593 121.317 109.878C121.599 110.16 122.001 110.3 122.522 110.3C123.05 110.3 123.454 110.16 123.732 109.878C124.014 109.596 124.155 109.199 124.155 108.687V103.891H125.093ZM129.16 108.104H127.498V110.966H126.56V103.891H128.902C129.699 103.891 130.312 104.073 130.739 104.435C131.17 104.798 131.386 105.326 131.386 106.019C131.386 106.46 131.266 106.844 131.026 107.171C130.789 107.498 130.459 107.743 130.035 107.905L131.697 110.908V110.966H130.696L129.16 108.104ZM127.498 107.341H128.932C129.395 107.341 129.763 107.221 130.035 106.982C130.31 106.742 130.448 106.421 130.448 106.019C130.448 105.582 130.317 105.247 130.054 105.014C129.795 104.78 129.419 104.662 128.927 104.659H127.498V107.341ZM138.135 110.966H137.197L133.635 105.514V110.966H132.698V103.891H133.635L137.207 109.367V103.891H138.135V110.966ZM144.418 107.443L146.265 103.891H147.324L144.885 108.328V110.966H143.952V108.328L141.512 103.891H142.581L144.418 107.443ZM153.534 107.657C153.534 108.35 153.417 108.956 153.184 109.474C152.951 109.989 152.621 110.383 152.193 110.655C151.765 110.927 151.266 111.063 150.696 111.063C150.139 111.063 149.645 110.927 149.214 110.655C148.783 110.38 148.448 109.989 148.208 109.484C147.972 108.976 147.85 108.388 147.844 107.72V107.21C147.844 106.53 147.962 105.929 148.199 105.407C148.435 104.886 148.769 104.487 149.2 104.212C149.634 103.933 150.129 103.794 150.687 103.794C151.253 103.794 151.752 103.932 152.183 104.207C152.617 104.479 152.951 104.876 153.184 105.397C153.417 105.916 153.534 106.52 153.534 107.21V107.657ZM152.606 107.2C152.606 106.361 152.437 105.718 152.101 105.271C151.764 104.821 151.292 104.596 150.687 104.596C150.097 104.596 149.632 104.821 149.292 105.271C148.955 105.718 148.782 106.34 148.772 107.137V107.657C148.772 108.47 148.942 109.11 149.282 109.576C149.626 110.04 150.097 110.271 150.696 110.271C151.299 110.271 151.765 110.053 152.096 109.615C152.426 109.175 152.596 108.545 152.606 107.725V107.2ZM159.914 103.891V108.702C159.911 109.369 159.7 109.915 159.283 110.339C158.868 110.764 158.304 111.002 157.592 111.054L157.344 111.063C156.569 111.063 155.952 110.854 155.492 110.437C155.032 110.019 154.799 109.444 154.793 108.711V103.891H155.716V108.682C155.716 109.194 155.857 109.593 156.139 109.878C156.42 110.16 156.822 110.3 157.344 110.3C157.872 110.3 158.275 110.16 158.554 109.878C158.836 109.596 158.976 109.199 158.976 108.687V103.891H159.914ZM163.981 108.104H162.32V110.966H161.382V103.891H163.724C164.521 103.891 165.133 104.073 165.561 104.435C165.992 104.798 166.207 105.326 166.207 106.019C166.207 106.46 166.087 106.844 165.847 107.171C165.611 107.498 165.281 107.743 164.856 107.905L166.518 110.908V110.966H165.517L163.981 108.104ZM162.32 107.341H163.753C164.216 107.341 164.584 107.221 164.856 106.982C165.131 106.742 165.269 106.421 165.269 106.019C165.269 105.582 165.138 105.247 164.876 105.014C164.616 104.78 164.241 104.662 163.748 104.659H162.32V107.341ZM169.988 110.966V103.891H172.301C173.068 103.891 173.645 104.05 174.03 104.367C174.419 104.685 174.614 105.155 174.614 105.776C174.614 106.107 174.52 106.4 174.332 106.656C174.144 106.909 173.888 107.105 173.564 107.244C173.946 107.351 174.247 107.555 174.468 107.856C174.691 108.154 174.803 108.511 174.803 108.925C174.803 109.56 174.597 110.059 174.186 110.422C173.775 110.785 173.193 110.966 172.441 110.966H169.988ZM170.92 107.657V110.203H172.461C172.895 110.203 173.237 110.092 173.486 109.868C173.739 109.641 173.865 109.33 173.865 108.935C173.865 108.083 173.402 107.657 172.475 107.657H170.92ZM170.92 106.909H172.33C172.738 106.909 173.063 106.807 173.306 106.603C173.553 106.398 173.676 106.122 173.676 105.772C173.676 105.383 173.562 105.101 173.336 104.926C173.109 104.748 172.764 104.659 172.301 104.659H170.92V106.909ZM181.63 107.657C181.63 108.35 181.514 108.956 181.28 109.474C181.047 109.989 180.717 110.383 180.289 110.655C179.862 110.927 179.363 111.063 178.792 111.063C178.235 111.063 177.741 110.927 177.31 110.655C176.88 110.38 176.544 109.989 176.305 109.484C176.068 108.976 175.947 108.388 175.94 107.72V107.21C175.94 106.53 176.058 105.929 176.295 105.407C176.531 104.886 176.865 104.487 177.296 104.212C177.73 103.933 178.226 103.794 178.783 103.794C179.35 103.794 179.849 103.932 180.279 104.207C180.714 104.479 181.047 104.876 181.28 105.397C181.514 105.916 181.63 106.52 181.63 107.21V107.657ZM180.702 107.2C180.702 106.361 180.534 105.718 180.197 105.271C179.86 104.821 179.389 104.596 178.783 104.596C178.193 104.596 177.728 104.821 177.388 105.271C177.051 105.718 176.878 106.34 176.868 107.137V107.657C176.868 108.47 177.038 109.11 177.378 109.576C177.722 110.04 178.193 110.271 178.792 110.271C179.395 110.271 179.862 110.053 180.192 109.615C180.522 109.175 180.692 108.545 180.702 107.725V107.2ZM183.03 110.966V103.891H185.027C185.642 103.891 186.187 104.027 186.66 104.299C187.133 104.571 187.497 104.959 187.753 105.461C188.012 105.963 188.143 106.539 188.147 107.191V107.642C188.147 108.31 188.017 108.895 187.758 109.397C187.502 109.899 187.134 110.284 186.655 110.553C186.179 110.822 185.623 110.96 184.988 110.966H183.03ZM183.963 104.659V110.203H184.944C185.663 110.203 186.222 109.98 186.621 109.533C187.022 109.086 187.223 108.449 187.223 107.623V107.21C187.223 106.407 187.034 105.783 186.655 105.339C186.279 104.892 185.744 104.665 185.051 104.659H183.963ZM191.504 107.443L193.351 103.891H194.41L191.971 108.328V110.966H191.038V108.328L188.598 103.891H189.668L191.504 107.443ZM36.9604 123.966H36.0274V116.891H36.9604V123.966ZM44.1084 123.966H43.1705L39.6087 118.514V123.966H38.6709V116.891H39.6087L43.1803 122.367V116.891H44.1084V123.966ZM50.508 117.659H48.2339V123.966H47.3058V117.659H45.0365V116.891H50.508V117.659ZM56.8639 120.657C56.8639 121.35 56.7473 121.956 56.5141 122.474C56.2808 122.989 55.9504 123.383 55.5228 123.655C55.0952 123.927 54.5963 124.063 54.0261 124.063C53.4689 124.063 52.9749 123.927 52.5441 123.655C52.1132 123.38 51.7779 122.989 51.5382 122.484C51.3017 121.976 51.1802 121.388 51.1737 120.72V120.21C51.1737 119.53 51.292 118.929 51.5285 118.407C51.765 117.886 52.0986 117.487 52.5295 117.212C52.9636 116.933 53.4592 116.794 54.0164 116.794C54.5833 116.794 55.0822 116.932 55.5131 117.207C55.9472 117.479 56.2808 117.876 56.5141 118.397C56.7473 118.916 56.8639 119.52 56.8639 120.21V120.657ZM55.9358 120.2C55.9358 119.361 55.7674 118.718 55.4305 118.271C55.0935 117.821 54.6222 117.596 54.0164 117.596C53.4268 117.596 52.9619 117.821 52.6218 118.271C52.2849 118.718 52.1116 119.34 52.1019 120.137V120.657C52.1019 121.47 52.2719 122.11 52.6121 122.576C52.9555 123.04 53.4268 123.271 54.0261 123.271C54.6287 123.271 55.0952 123.053 55.4256 122.615C55.756 122.175 55.9261 121.545 55.9358 120.725V120.2ZM65.426 117.659H63.1518V123.966H62.2237V117.659H59.9544V116.891H65.426V117.659ZM71.9131 123.966H70.9752V120.696H67.4085V123.966H66.4756V116.891H67.4085V119.933H70.9752V116.891H71.9131V123.966ZM77.5692 120.696H74.5031V123.203H78.0649V123.966H73.5701V116.891H78.0163V117.659H74.5031V119.933H77.5692V120.696ZM83.2206 121.736L83.3566 122.669L83.5559 121.828L84.9553 116.891H85.7425L87.108 121.828L87.3023 122.683L87.453 121.731L88.5512 116.891H89.489L87.7737 123.966H86.9233L85.4655 118.811L85.3538 118.271L85.242 118.811L83.7308 123.966H82.8804L81.17 116.891H82.1029L83.2206 121.736ZM91.5299 123.966H90.5969V116.891H91.5299V123.966ZM95.325 120.813C94.5248 120.583 93.9417 120.301 93.5756 119.967C93.2128 119.63 93.0314 119.215 93.0314 118.723C93.0314 118.166 93.2533 117.706 93.6971 117.343C94.1442 116.977 94.7241 116.794 95.4367 116.794C95.9227 116.794 96.3551 116.888 96.7342 117.076C97.1164 117.264 97.4112 117.523 97.6186 117.853C97.8291 118.184 97.9344 118.545 97.9344 118.937H96.9966C96.9966 118.509 96.8605 118.174 96.5884 117.931C96.3163 117.685 95.9324 117.562 95.4367 117.562C94.9767 117.562 94.6171 117.664 94.358 117.868C94.1021 118.069 93.9741 118.349 93.9741 118.708C93.9741 118.997 94.0956 119.241 94.3386 119.442C94.5848 119.64 95.001 119.821 95.5874 119.986C96.177 120.152 96.637 120.335 96.9674 120.536C97.3011 120.733 97.5473 120.965 97.706 121.23C97.868 121.496 97.949 121.809 97.949 122.168C97.949 122.742 97.7255 123.202 97.2784 123.548C96.8314 123.892 96.2337 124.063 95.4853 124.063C94.9994 124.063 94.5459 123.971 94.1247 123.786C93.7036 123.599 93.378 123.343 93.148 123.019C92.9213 122.695 92.8079 122.327 92.8079 121.916H93.7457C93.7457 122.343 93.9028 122.682 94.2171 122.931C94.5345 123.177 94.9573 123.3 95.4853 123.3C95.9777 123.3 96.3551 123.2 96.6175 122.999C96.8799 122.798 97.0111 122.525 97.0111 122.178C97.0111 121.831 96.8897 121.564 96.6467 121.376C96.4037 121.185 95.9632 120.997 95.325 120.813ZM104.587 123.966H103.649V120.696H100.082V123.966H99.1492V116.891H100.082V119.933H103.649V116.891H104.587V123.966ZM110.243 120.696H107.177V123.203H110.739V123.966H106.244V116.891H110.69V117.659H107.177V119.933H110.243V120.696ZM111.9 123.966V116.891H113.897C114.513 116.891 115.057 117.027 115.53 117.299C116.003 117.571 116.367 117.959 116.623 118.461C116.882 118.963 117.013 119.539 117.017 120.191V120.642C117.017 121.31 116.887 121.895 116.628 122.397C116.372 122.899 116.004 123.284 115.525 123.553C115.049 123.822 114.493 123.96 113.858 123.966H111.9ZM112.833 117.659V123.203H113.814C114.534 123.203 115.092 122.98 115.491 122.533C115.893 122.086 116.093 121.449 116.093 120.623V120.21C116.093 119.407 115.904 118.783 115.525 118.339C115.149 117.892 114.615 117.665 113.921 117.659H112.833ZM124.801 120.842H121.832V123.966H120.899V116.891H125.282V117.659H121.832V120.079H124.801V120.842ZM131.842 120.657C131.842 121.35 131.726 121.956 131.492 122.474C131.259 122.989 130.929 123.383 130.501 123.655C130.074 123.927 129.575 124.063 129.005 124.063C128.447 124.063 127.953 123.927 127.522 123.655C127.092 123.38 126.756 122.989 126.517 122.484C126.28 121.976 126.159 121.388 126.152 120.72V120.21C126.152 119.53 126.27 118.929 126.507 118.407C126.743 117.886 127.077 117.487 127.508 117.212C127.942 116.933 128.438 116.794 128.995 116.794C129.562 116.794 130.061 116.932 130.491 117.207C130.926 117.479 131.259 117.876 131.492 118.397C131.726 118.916 131.842 119.52 131.842 120.21V120.657ZM130.914 120.2C130.914 119.361 130.746 118.718 130.409 118.271C130.072 117.821 129.601 117.596 128.995 117.596C128.405 117.596 127.94 117.821 127.6 118.271C127.263 118.718 127.09 119.34 127.08 120.137V120.657C127.08 121.47 127.25 122.11 127.59 122.576C127.934 123.04 128.405 123.271 129.005 123.271C129.607 123.271 130.074 123.053 130.404 122.615C130.734 122.175 130.904 121.545 130.914 120.725V120.2ZM135.837 121.104H134.175V123.966H133.237V116.891H135.579C136.376 116.891 136.988 117.073 137.416 117.435C137.847 117.798 138.062 118.326 138.062 119.019C138.062 119.46 137.942 119.844 137.703 120.171C137.466 120.498 137.136 120.743 136.711 120.905L138.373 123.908V123.966H137.372L135.837 121.104ZM134.175 120.341H135.608C136.072 120.341 136.439 120.221 136.711 119.982C136.987 119.742 137.124 119.421 137.124 119.019C137.124 118.582 136.993 118.247 136.731 118.014C136.472 117.78 136.096 117.662 135.603 117.659H134.175V120.341ZM140.579 116.891L142.892 122.664L145.205 116.891H146.415V123.966H145.482V121.211L145.57 118.237L143.247 123.966H142.533L140.215 118.252L140.307 121.211V123.966H139.374V116.891H140.579Z" fill="black"/>
<rect width="177.611" height="32.6987" transform="translate(35.1382 143.333)" fill="#E6F7FF"/>
<path d="M40.8478 152.713H38.5737V159.02H37.6456V152.713H35.3763V151.945H40.8478V152.713ZM42.7332 159.02H41.8342V153.762H42.7332V159.02ZM41.7614 152.368C41.7614 152.222 41.8051 152.099 41.8926 151.999C41.9833 151.898 42.1161 151.848 42.291 151.848C42.4659 151.848 42.5988 151.898 42.6895 151.999C42.7802 152.099 42.8255 152.222 42.8255 152.368C42.8255 152.514 42.7802 152.635 42.6895 152.732C42.5988 152.829 42.4659 152.878 42.291 152.878C42.1161 152.878 41.9833 152.829 41.8926 152.732C41.8051 152.635 41.7614 152.514 41.7614 152.368ZM45.0219 153.762L45.0462 154.346C45.4317 153.892 45.9517 153.665 46.606 153.665C47.3414 153.665 47.8419 153.947 48.1075 154.511C48.2825 154.258 48.5092 154.054 48.7878 153.898C49.0697 153.743 49.4017 153.665 49.784 153.665C50.9373 153.665 51.5236 154.276 51.543 155.497V159.02H50.6441V155.551C50.6441 155.175 50.5582 154.895 50.3865 154.71C50.2148 154.522 49.9265 154.428 49.5216 154.428C49.1879 154.428 48.9109 154.529 48.6907 154.729C48.4704 154.927 48.3424 155.194 48.3068 155.531V159.02H47.403V155.575C47.403 154.81 47.0288 154.428 46.2805 154.428C45.6909 154.428 45.2876 154.679 45.0705 155.181V159.02H44.1715V153.762H45.0219ZM55.0854 159.117C54.3728 159.117 53.7929 158.884 53.3458 158.418C52.8988 157.948 52.6753 157.321 52.6753 156.537V156.372C52.6753 155.85 52.7741 155.385 52.9717 154.977C53.1725 154.566 53.4511 154.245 53.8075 154.015C54.167 153.782 54.5558 153.665 54.9737 153.665C55.6572 153.665 56.1885 153.89 56.5675 154.341C56.9465 154.791 57.1361 155.436 57.1361 156.275V156.649H53.5742C53.5872 157.167 53.7378 157.587 54.0261 157.907C54.3177 158.225 54.687 158.384 55.134 158.384C55.4515 158.384 55.7204 158.319 55.9407 158.189C56.161 158.06 56.3537 157.888 56.5189 157.674L57.068 158.102C56.6275 158.779 55.9666 159.117 55.0854 159.117ZM54.9737 154.404C54.6109 154.404 54.3063 154.537 54.0601 154.802C53.8139 155.065 53.6617 155.434 53.6034 155.91H56.2371V155.842C56.2112 155.385 56.0881 155.032 55.8678 154.783C55.6475 154.53 55.3495 154.404 54.9737 154.404ZM60.7222 154.569C60.5861 154.546 60.4387 154.535 60.28 154.535C59.6904 154.535 59.2903 154.786 59.0798 155.288V159.02H58.1808V153.762H59.0555L59.07 154.37C59.3648 153.9 59.7827 153.665 60.3237 153.665C60.4987 153.665 60.6315 153.688 60.7222 153.733V154.569Z" fill="#767676"/>
<rect x="35.1382" y="164.659" width="177.611" height="5.68672" fill="#1890FF"/>
<rect x="35.1382" y="186.843" width="59.0296" height="22.5194" rx="1.87662" fill="#1890FF"/>
<path d="M47.2044 200.156C47.0236 200.415 46.7706 200.609 46.4457 200.738C46.1231 200.865 45.7468 200.929 45.3168 200.929C44.8818 200.929 44.4957 200.828 44.1585 200.625C43.8213 200.42 43.5599 200.129 43.3742 199.752C43.1909 199.376 43.0968 198.94 43.0919 198.444V197.978C43.0919 197.175 43.2789 196.551 43.6527 196.109C44.029 195.667 44.5568 195.446 45.2361 195.446C45.7932 195.446 46.2416 195.589 46.5813 195.875C46.9209 196.158 47.1286 196.561 47.2044 197.084H46.5006C46.3687 196.378 45.9484 196.025 45.2398 196.025C44.7682 196.025 44.4102 196.191 44.1659 196.523C43.924 196.853 43.8018 197.332 43.7993 197.96V198.396C43.7993 198.995 43.9362 199.471 44.2098 199.826C44.4835 200.178 44.8537 200.354 45.3204 200.354C45.5843 200.354 45.8152 200.324 46.0132 200.266C46.2111 200.207 46.3748 200.108 46.5043 199.969V198.77H45.2691V198.198H47.2044V200.156ZM51.3974 198.389H49.0847V200.28H51.7713V200.856H48.3809V195.519H51.7346V196.098H49.0847V197.814H51.3974V198.389ZM56.4079 196.098H54.6925V200.856H53.9925V196.098H52.2808V195.519H56.4079V196.098ZM61.8618 199.463H59.626L59.1238 200.856H58.3981L60.436 195.519H61.0518L63.0933 200.856H62.3713L61.8618 199.463ZM59.8386 198.884H61.6529L60.7439 196.388L59.8386 198.884ZM69.6138 200.156C69.433 200.415 69.1801 200.609 68.8551 200.738C68.5326 200.865 68.1563 200.929 67.7262 200.929C67.2913 200.929 66.9052 200.828 66.568 200.625C66.2308 200.42 65.9693 200.129 65.7836 199.752C65.6004 199.376 65.5063 198.94 65.5014 198.444V197.978C65.5014 197.175 65.6883 196.551 66.0622 196.109C66.4385 195.667 66.9663 195.446 67.6456 195.446C68.2027 195.446 68.6511 195.589 68.9907 195.875C69.3304 196.158 69.5381 196.561 69.6138 197.084H68.9101C68.7782 196.378 68.3579 196.025 67.6493 196.025C67.1777 196.025 66.8197 196.191 66.5753 196.523C66.3334 196.853 66.2112 197.332 66.2088 197.96V198.396C66.2088 198.995 66.3456 199.471 66.6193 199.826C66.893 200.178 67.2632 200.354 67.7299 200.354C67.9938 200.354 68.2247 200.324 68.4226 200.266C68.6205 200.207 68.7843 200.108 68.9138 199.969V198.77H67.6786V198.198H69.6138V200.156ZM74.5473 195.519V199.148C74.5448 199.651 74.386 200.063 74.0708 200.383C73.758 200.703 73.3329 200.883 72.7953 200.922L72.6084 200.929C72.0244 200.929 71.5589 200.771 71.2119 200.456C70.8649 200.141 70.689 199.707 70.6841 199.155V195.519H71.3805V199.133C71.3805 199.519 71.4868 199.82 71.6994 200.035C71.912 200.247 72.215 200.354 72.6084 200.354C73.0067 200.354 73.3109 200.247 73.521 200.035C73.7336 199.822 73.8399 199.523 73.8399 199.137V195.519H74.5473ZM76.4129 200.856H75.7092V195.519H76.4129V200.856ZM77.7031 200.856V195.519H79.2095C79.6738 195.519 80.0843 195.622 80.441 195.827C80.7978 196.032 81.0727 196.324 81.2657 196.703C81.4612 197.082 81.5602 197.517 81.5626 198.008V198.349C81.5626 198.852 81.4649 199.293 81.2694 199.672C81.0764 200.051 80.799 200.341 80.4374 200.544C80.0782 200.747 79.6591 200.851 79.1802 200.856H77.7031ZM78.4068 196.098V200.28H79.1472C79.6897 200.28 80.1112 200.112 80.4117 199.774C80.7147 199.437 80.8662 198.957 80.8662 198.334V198.022C80.8662 197.416 80.7233 196.946 80.4374 196.611C80.1539 196.274 79.7508 196.103 79.2278 196.098H78.4068ZM85.6457 198.389H83.3329V200.28H86.0196V200.856H82.6292V195.519H85.9829V196.098H83.3329V197.814H85.6457V198.389Z" fill="#E6F7FF"/>
</g>
<rect x="2.38892" y="2" width="490.222" height="274" rx="6" stroke="#8C8C8C" stroke-width="4"/>
<defs>
<clipPath id="clip0">
</clipPath>
</defs>
</svg>
