<svg width="157" height="278" viewBox="0 0 157 278" fill="none" xmlns="http://www.w3.org/2000/svg">
<g clip-path="url(#clip0)">
<rect x="2.19019" y="2" width="152.62" height="274" rx="14" fill="#E6F7FF"/>
<rect x="0.744755" y="0.55457" width="155.511" height="137.891" fill="#F8F8F8"/>
<path d="M3.51709 3.32825L153.482 135.673" stroke="#E7E7E7" stroke-width="1.10914"/>
<path d="M153.481 3.32825L3.51633 135.673" stroke="#E7E7E7" stroke-width="1.10914"/>
<rect x="0.744755" y="0.55457" width="155.511" height="137.891" stroke="#E7E7E7" stroke-width="1.10914"/>
<rect width="103.739" height="21.4342" transform="translate(8.01929 144.987)" fill="#E6F7FF"/>
<path d="M9.02345 159.468V150.817H11.4655C12.2182 150.817 12.8836 150.983 13.462 151.316C14.0403 151.649 14.4859 152.122 14.7989 152.736C15.1158 153.35 15.2762 154.055 15.2802 154.851V155.404C15.2802 156.22 15.1217 156.935 14.8048 157.549C14.4919 158.163 14.0423 158.634 13.456 158.963C12.8737 159.292 12.1944 159.46 11.418 159.468H9.02345ZM10.1643 151.756V158.535H11.3645C12.2439 158.535 12.9272 158.262 13.4144 157.715C13.9056 157.169 14.1512 156.39 14.1512 155.38V154.875C14.1512 153.893 13.9195 153.13 13.456 152.587C12.9965 152.041 12.3429 151.764 11.4952 151.756H10.1643ZM23.664 155.422C23.664 156.269 23.5214 157.01 23.2362 157.644C22.951 158.274 22.547 158.755 22.0241 159.088C21.5012 159.421 20.8912 159.587 20.194 159.587C19.5127 159.587 18.9086 159.421 18.3818 159.088C17.8549 158.751 17.4449 158.274 17.1518 157.656C16.8626 157.034 16.7141 156.315 16.7062 155.499V154.875C16.7062 154.043 16.8508 153.308 17.1399 152.671C17.4291 152.033 17.8371 151.546 18.3639 151.209C18.8947 150.868 19.5008 150.698 20.1821 150.698C20.8753 150.698 21.4854 150.866 22.0122 151.203C22.543 151.536 22.951 152.021 23.2362 152.659C23.5214 153.293 23.664 154.031 23.664 154.875V155.422ZM22.5291 154.863C22.5291 153.837 22.3232 153.051 21.9112 152.504C21.4992 151.954 20.9229 151.678 20.1821 151.678C19.4612 151.678 18.8928 151.954 18.4768 152.504C18.0649 153.051 17.8529 153.811 17.8411 154.786V155.422C17.8411 156.416 18.049 157.198 18.465 157.769C18.8848 158.335 19.4612 158.618 20.194 158.618C20.9308 158.618 21.5012 158.351 21.9052 157.816C22.3093 157.278 22.5173 156.507 22.5291 155.505V154.863ZM27.241 156.741L27.4073 157.882L27.651 156.854L29.3622 150.817H30.3248L31.9944 156.854L32.2321 157.899L32.4163 156.735L33.7591 150.817H34.9059L32.8084 159.468H31.7686L29.9861 153.164L29.8494 152.504L29.7128 153.164L27.8649 159.468H26.825L24.7335 150.817H25.8744L27.241 156.741ZM42.8263 159.468H41.6795L37.3242 152.801V159.468H36.1774V150.817H37.3242L41.6914 157.513V150.817H42.8263V159.468ZM45.9992 158.535H50.099V159.468H44.8524V150.817H45.9992V158.535ZM57.6629 155.422C57.6629 156.269 57.5203 157.01 57.2351 157.644C56.9499 158.274 56.5459 158.755 56.023 159.088C55.5001 159.421 54.8901 159.587 54.1929 159.587C53.5116 159.587 52.9075 159.421 52.3807 159.088C51.8538 158.751 51.4439 158.274 51.1507 157.656C50.8616 157.034 50.713 156.315 50.7051 155.499V154.875C50.7051 154.043 50.8497 153.308 51.1389 152.671C51.428 152.033 51.836 151.546 52.3629 151.209C52.8937 150.868 53.4997 150.698 54.181 150.698C54.8743 150.698 55.4843 150.866 56.0111 151.203C56.5419 151.536 56.9499 152.021 57.2351 152.659C57.5203 153.293 57.6629 154.031 57.6629 154.875V155.422ZM56.5281 154.863C56.5281 153.837 56.3221 153.051 55.9101 152.504C55.4981 151.954 54.9218 151.678 54.181 151.678C53.4601 151.678 52.8917 151.954 52.4758 152.504C52.0638 153.051 51.8519 153.811 51.84 154.786V155.422C51.84 156.416 52.0479 157.198 52.4639 157.769C52.8838 158.335 53.4601 158.618 54.1929 158.618C54.9297 158.618 55.5001 158.351 55.9042 157.816C56.3082 157.278 56.5162 156.507 56.5281 155.505V154.863ZM64.0206 157.21H60.3962L59.5821 159.468H58.4057L61.7093 150.817H62.7075L66.0171 159.468H64.8466L64.0206 157.21ZM60.7408 156.271H63.682L62.2084 152.225L60.7408 156.271ZM67.1817 159.468V150.817H69.6238C70.3764 150.817 71.0419 150.983 71.6202 151.316C72.1985 151.649 72.6442 152.122 72.9571 152.736C73.274 153.35 73.4344 154.055 73.4384 154.851V155.404C73.4384 156.22 73.2799 156.935 72.963 157.549C72.6501 158.163 72.2005 158.634 71.6143 158.963C71.032 159.292 70.3526 159.46 69.5762 159.468H67.1817ZM68.3225 151.756V158.535H69.5227C70.4021 158.535 71.0854 158.262 71.5727 157.715C72.0639 157.169 72.3094 156.39 72.3094 155.38V154.875C72.3094 153.893 72.0777 153.13 71.6143 152.587C71.1548 152.041 70.5012 151.764 69.6535 151.756H68.3225ZM84.5733 158.333C84.2802 158.753 83.8702 159.068 83.3434 159.278C82.8205 159.484 82.2105 159.587 81.5133 159.587C80.8082 159.587 80.1823 159.423 79.6357 159.094C79.089 158.761 78.6652 158.29 78.3641 157.68C78.067 157.07 77.9145 156.363 77.9066 155.558V154.804C77.9066 153.501 78.2096 152.49 78.8157 151.773C79.4257 151.056 80.2814 150.698 81.3826 150.698C82.2857 150.698 83.0126 150.93 83.5632 151.393C84.1138 151.853 84.4505 152.506 84.5733 153.354H83.4325C83.2186 152.209 82.5372 151.637 81.3885 151.637C80.624 151.637 80.0437 151.906 79.6476 152.445C79.2554 152.98 79.0573 153.756 79.0534 154.774V155.481C79.0534 156.452 79.2752 157.224 79.7189 157.798C80.1625 158.369 80.7626 158.654 81.5192 158.654C81.947 158.654 82.3214 158.607 82.6422 158.511C82.9631 158.416 83.2285 158.256 83.4384 158.03V156.087H81.436V155.16H84.5733V158.333ZM92.5709 150.817V156.699C92.567 157.515 92.3095 158.183 91.7985 158.702C91.2915 159.221 90.6022 159.512 89.7308 159.575L89.4277 159.587C88.481 159.587 87.7264 159.331 87.1639 158.82C86.6014 158.309 86.3162 157.606 86.3083 156.711V150.817H87.4372V156.675C87.4372 157.301 87.6096 157.789 87.9542 158.137C88.2988 158.482 88.79 158.654 89.4277 158.654C90.0734 158.654 90.5666 158.482 90.9072 158.137C91.2519 157.792 91.4242 157.307 91.4242 156.681V150.817H92.5709ZM95.5953 159.468H94.4545V150.817H95.5953V159.468ZM97.6868 159.468V150.817H100.129C100.882 150.817 101.547 150.983 102.125 151.316C102.704 151.649 103.149 152.122 103.462 152.736C103.779 153.35 103.94 154.055 103.944 154.851V155.404C103.944 156.22 103.785 156.935 103.468 157.549C103.155 158.163 102.706 158.634 102.119 158.963C101.537 159.292 100.858 159.46 100.081 159.468H97.6868ZM98.8276 151.756V158.535H100.028C100.907 158.535 101.591 158.262 102.078 157.715C102.569 157.169 102.815 156.39 102.815 155.38V154.875C102.815 153.893 102.583 153.13 102.119 152.587C101.66 152.041 101.006 151.764 100.159 151.756H98.8276ZM110.563 155.469H106.813V158.535H111.169V159.468H105.673V150.817H111.109V151.756H106.813V154.536H110.563V155.469Z" fill="black"/>
<rect width="91.2924" height="39.2053" transform="translate(8.01929 170.337)" fill="#E6F7FF"/>
<path d="M8.80799 180.023L9.09131 177.243H11.9475V177.898H9.69241L9.52394 179.418C9.79705 179.257 10.1072 179.177 10.4543 179.177C10.9622 179.177 11.3655 179.345 11.6642 179.682C11.9628 180.017 12.1121 180.47 12.1121 181.041C12.1121 181.616 11.9564 182.069 11.645 182.401C11.3362 182.73 10.9035 182.894 10.3471 182.894C9.85448 182.894 9.45248 182.758 9.14108 182.485C8.82968 182.212 8.65229 181.834 8.6089 181.351H9.27891C9.3223 181.671 9.43589 181.912 9.61966 182.075C9.80344 182.236 10.0459 182.316 10.3471 182.316C10.6764 182.316 10.9342 182.204 11.1205 181.979C11.3094 181.755 11.4038 181.445 11.4038 181.049C11.4038 180.676 11.3017 180.378 11.0975 180.153C10.8959 179.926 10.6266 179.812 10.2897 179.812C9.98083 179.812 9.73835 179.88 9.56223 180.015L9.37463 180.168L8.80799 180.023ZM18.1652 180.241H15.7493V182.217H18.5557V182.818H15.0142V177.243H18.5174V177.848H15.7493V179.64H18.1652V180.241ZM22.549 181.363H20.2135L19.689 182.818H18.9309L21.0597 177.243H21.7029L23.8354 182.818H23.0812L22.549 181.363ZM20.4356 180.758H22.3308L21.3813 178.151L20.4356 180.758ZM26.2283 180.333C25.5979 180.152 25.1384 179.93 24.85 179.667C24.5641 179.401 24.4212 179.075 24.4212 178.687C24.4212 178.248 24.596 177.885 24.9457 177.599C25.298 177.311 25.7548 177.167 26.3164 177.167C26.6992 177.167 27.04 177.241 27.3386 177.389C27.6398 177.537 27.8721 177.741 28.0354 178.001C28.2014 178.262 28.2843 178.546 28.2843 178.855H27.5454C27.5454 178.518 27.4382 178.254 27.2238 178.063C27.0094 177.869 26.7069 177.772 26.3164 177.772C25.9539 177.772 25.6706 177.852 25.4664 178.013C25.2648 178.171 25.164 178.392 25.164 178.675C25.164 178.902 25.2597 179.095 25.4511 179.253C25.6451 179.409 25.9731 179.552 26.4351 179.682C26.8996 179.812 27.2621 179.957 27.5224 180.115C27.7853 180.271 27.9793 180.453 28.1044 180.662C28.232 180.872 28.2958 181.118 28.2958 181.401C28.2958 181.853 28.1197 182.215 27.7674 182.489C27.4152 182.759 26.9443 182.894 26.3547 182.894C25.9718 182.894 25.6145 182.822 25.2826 182.676C24.9508 182.528 24.6943 182.327 24.5131 182.071C24.3344 181.816 24.2451 181.526 24.2451 181.202H24.984C24.984 181.539 25.1078 181.806 25.3554 182.002C25.6055 182.196 25.9386 182.293 26.3547 182.293C26.7426 182.293 27.04 182.214 27.2467 182.056C27.4535 181.898 27.5569 181.682 27.5569 181.409C27.5569 181.136 27.4611 180.925 27.2697 180.777C27.0783 180.627 26.7312 180.479 26.2283 180.333ZM30.9414 180.042L32.3963 177.243H33.2309L31.3089 180.739V182.818H30.5738V180.739L28.6519 177.243H29.4942L30.9414 180.042ZM37.0978 181.061L37.205 181.796L37.362 181.133L38.4647 177.243H39.0849L40.1608 181.133L40.3139 181.807L40.4326 181.057L41.2979 177.243H42.0368L40.6853 182.818H40.0153L38.8667 178.756L38.7786 178.331L38.6906 178.756L37.4999 182.818H36.8298L35.4822 177.243H36.2173L37.0978 181.061ZM45.7659 181.363H43.4304L42.9059 182.818H42.1478L44.2766 177.243H44.9198L47.0523 182.818H46.2981L45.7659 181.363ZM43.6525 180.758H45.5477L44.5982 178.151L43.6525 180.758ZM49.1428 180.042L50.5977 177.243H51.4323L49.5103 180.739V182.818H48.7752V180.739L46.8532 177.243H47.6955L49.1428 180.042ZM53.7333 180.333C53.1029 180.152 52.6434 179.93 52.355 179.667C52.0691 179.401 51.9262 179.075 51.9262 178.687C51.9262 178.248 52.101 177.885 52.4507 177.599C52.803 177.311 53.2598 177.167 53.8214 177.167C54.2042 177.167 54.545 177.241 54.8436 177.389C55.1448 177.537 55.3771 177.741 55.5404 178.001C55.7063 178.262 55.7893 178.546 55.7893 178.855H55.0504C55.0504 178.518 54.9432 178.254 54.7288 178.063C54.5144 177.869 54.2119 177.772 53.8214 177.772C53.4589 177.772 53.1756 177.852 52.9714 178.013C52.7698 178.171 52.6689 178.392 52.6689 178.675C52.6689 178.902 52.7647 179.095 52.9561 179.253C53.1501 179.409 53.4781 179.552 53.9401 179.682C54.4046 179.812 54.767 179.957 55.0274 180.115C55.2903 180.271 55.4843 180.453 55.6093 180.662C55.737 180.872 55.8008 181.118 55.8008 181.401C55.8008 181.853 55.6247 182.215 55.2724 182.489C54.9202 182.759 54.4493 182.894 53.8597 182.894C53.4768 182.894 53.1195 182.822 52.7876 182.676C52.4558 182.528 52.1993 182.327 52.0181 182.071C51.8394 181.816 51.7501 181.526 51.7501 181.202H52.489C52.489 181.539 52.6128 181.806 52.8604 182.002C53.1105 182.196 53.4436 182.293 53.8597 182.293C54.2476 182.293 54.545 182.214 54.7517 182.056C54.9585 181.898 55.0619 181.682 55.0619 181.409C55.0619 181.136 54.9661 180.925 54.7747 180.777C54.5833 180.627 54.2361 180.479 53.7333 180.333ZM62.3899 177.848H60.5981V182.818H59.8668V177.848H58.0788V177.243H62.3899V177.848ZM67.3977 180.211C67.3977 180.757 67.3059 181.234 67.1221 181.642C66.9383 182.048 66.678 182.358 66.341 182.573C66.0041 182.787 65.611 182.894 65.1618 182.894C64.7228 182.894 64.3336 182.787 63.9941 182.573C63.6546 182.356 63.3904 182.048 63.2016 181.65C63.0152 181.249 62.9195 180.786 62.9144 180.26V179.858C62.9144 179.322 63.0076 178.849 63.1939 178.438C63.3802 178.027 63.6431 177.713 63.9826 177.496C64.3246 177.277 64.7151 177.167 65.1542 177.167C65.6008 177.167 65.9939 177.275 66.3334 177.492C66.6754 177.707 66.9383 178.019 67.1221 178.43C67.3059 178.839 67.3977 179.315 67.3977 179.858V180.211ZM66.6665 179.851C66.6665 179.19 66.5337 178.683 66.2683 178.331C66.0028 177.976 65.6315 177.799 65.1542 177.799C64.6896 177.799 64.3233 177.976 64.0553 178.331C63.7899 178.683 63.6533 179.173 63.6457 179.801V180.211C63.6457 180.851 63.7797 181.355 64.0477 181.723C64.3182 182.088 64.6896 182.27 65.1618 182.27C65.6366 182.27 66.0041 182.098 66.2645 181.754C66.5248 181.406 66.6588 180.91 66.6665 180.264V179.851ZM74.1438 177.848H72.352V182.818H71.6207V177.848H69.8328V177.243H74.1438V177.848ZM78.8952 177.243V181.034C78.8926 181.56 78.7267 181.99 78.3974 182.324C78.0707 182.658 77.6266 182.846 77.0651 182.887L76.8698 182.894C76.2598 182.894 75.7735 182.73 75.4111 182.401C75.0487 182.071 74.8649 181.618 74.8598 181.041V177.243H75.5872V181.018C75.5872 181.422 75.6983 181.736 75.9203 181.96C76.1424 182.182 76.4589 182.293 76.8698 182.293C77.2859 182.293 77.6036 182.182 77.8232 181.96C78.0452 181.738 78.1562 181.426 78.1562 181.022V177.243H78.8952ZM82.0997 180.563H80.7903V182.818H80.0514V177.243H81.8968C82.5247 177.243 83.0071 177.386 83.3441 177.672C83.6835 177.958 83.8533 178.374 83.8533 178.92C83.8533 179.267 83.7588 179.57 83.5699 179.828C83.3836 180.085 83.1233 180.278 82.7889 180.406L84.0983 182.772V182.818H83.3096L82.0997 180.563ZM80.7903 179.962H81.9198C82.2848 179.962 82.5745 179.867 82.7889 179.678C83.0059 179.49 83.1143 179.237 83.1143 178.92C83.1143 178.576 83.011 178.312 82.8042 178.128C82.6 177.944 82.3039 177.851 81.916 177.848H80.7903V179.962ZM89.1713 182.818H88.4323L85.6259 178.522V182.818H84.887V177.243H85.6259L88.44 181.558V177.243H89.1713V182.818ZM10.3662 190.042L11.8211 187.243H12.6558L10.7338 190.739V192.818H9.9987V190.739L8.07672 187.243H8.91902L10.3662 190.042ZM17.5488 190.211C17.5488 190.757 17.4569 191.234 17.2731 191.642C17.0893 192.048 16.829 192.358 16.4921 192.573C16.1552 192.787 15.7621 192.894 15.3129 192.894C14.8738 192.894 14.4846 192.787 14.1451 192.573C13.8056 192.356 13.5415 192.048 13.3526 191.65C13.1663 191.249 13.0705 190.786 13.0654 190.26V189.858C13.0654 189.322 13.1586 188.849 13.3449 188.438C13.5313 188.027 13.7942 187.713 14.1336 187.496C14.4757 187.277 14.8662 187.167 15.3052 187.167C15.7519 187.167 16.1449 187.275 16.4844 187.492C16.8264 187.707 17.0893 188.019 17.2731 188.43C17.4569 188.839 17.5488 189.315 17.5488 189.858V190.211ZM16.8175 189.851C16.8175 189.19 16.6848 188.683 16.4193 188.331C16.1539 187.976 15.7825 187.799 15.3052 187.799C14.8407 187.799 14.4744 187.976 14.2064 188.331C13.9409 188.683 13.8044 189.173 13.7967 189.801V190.211C13.7967 190.851 13.9307 191.355 14.1987 191.723C14.4693 192.088 14.8407 192.27 15.3129 192.27C15.7876 192.27 16.1552 192.098 16.4155 191.754C16.6759 191.406 16.8099 190.91 16.8175 190.264V189.851ZM22.5758 187.243V191.034C22.5732 191.56 22.4073 191.99 22.0781 192.324C21.7514 192.658 21.3072 192.846 20.7457 192.887L20.5504 192.894C19.9404 192.894 19.4542 192.73 19.0917 192.401C18.7293 192.071 18.5455 191.618 18.5404 191.041V187.243H19.2678V191.018C19.2678 191.422 19.3789 191.736 19.6009 191.96C19.823 192.182 20.1395 192.293 20.5504 192.293C20.9665 192.293 21.2843 192.182 21.5038 191.96C21.7258 191.738 21.8369 191.426 21.8369 191.022V187.243H22.5758ZM25.7804 190.563H24.471V192.818H23.732V187.243H25.5775C26.2054 187.243 26.6878 187.386 27.0247 187.672C27.3642 187.958 27.5339 188.374 27.5339 188.92C27.5339 189.267 27.4395 189.57 27.2506 189.828C27.0642 190.085 26.8039 190.278 26.4695 190.406L27.7789 192.772V192.818H26.9902L25.7804 190.563ZM24.471 189.962H25.6004C25.9654 189.962 26.2551 189.867 26.4695 189.678C26.6865 189.49 26.795 189.237 26.795 188.92C26.795 188.576 26.6916 188.312 26.4848 188.128C26.2806 187.944 25.9846 187.851 25.5966 187.848H24.471V189.962ZM30.5126 192.818V187.243H32.335C32.9399 187.243 33.3943 187.368 33.698 187.619C34.0043 187.869 34.1574 188.239 34.1574 188.729C34.1574 188.989 34.0834 189.22 33.9354 189.422C33.7873 189.621 33.5857 189.775 33.3305 189.885C33.6316 189.969 33.869 190.13 34.0426 190.368C34.2187 190.602 34.3068 190.883 34.3068 191.21C34.3068 191.71 34.1447 192.103 33.8205 192.389C33.4964 192.675 33.0382 192.818 32.446 192.818H30.5126ZM31.2477 190.211V192.217H32.4614C32.8034 192.217 33.0727 192.129 33.2692 191.953C33.4683 191.774 33.5678 191.529 33.5678 191.217C33.5678 190.546 33.2028 190.211 32.4728 190.211H31.2477ZM31.2477 189.621H32.358C32.6796 189.621 32.9361 189.541 33.1275 189.38C33.3215 189.219 33.4185 189.001 33.4185 188.725C33.4185 188.419 33.3292 188.197 33.1505 188.059C32.9718 187.918 32.7 187.848 32.335 187.848H31.2477V189.621ZM39.686 190.211C39.686 190.757 39.5941 191.234 39.4103 191.642C39.2266 192.048 38.9662 192.358 38.6293 192.573C38.2924 192.787 37.8993 192.894 37.4501 192.894C37.0111 192.894 36.6218 192.787 36.2823 192.573C35.9429 192.356 35.6787 192.048 35.4898 191.65C35.3035 191.249 35.2078 190.786 35.2027 190.26V189.858C35.2027 189.322 35.2958 188.849 35.4822 188.438C35.6685 188.027 35.9314 187.713 36.2709 187.496C36.6129 187.277 37.0034 187.167 37.4424 187.167C37.8891 187.167 38.2822 187.275 38.6216 187.492C38.9637 187.707 39.2266 188.019 39.4103 188.43C39.5941 188.839 39.686 189.315 39.686 189.858V190.211ZM38.9547 189.851C38.9547 189.19 38.822 188.683 38.5566 188.331C38.2911 187.976 37.9197 187.799 37.4424 187.799C36.9779 187.799 36.6116 187.976 36.3436 188.331C36.0782 188.683 35.9416 189.173 35.9339 189.801V190.211C35.9339 190.851 36.0679 191.355 36.3359 191.723C36.6065 192.088 36.9779 192.27 37.4501 192.27C37.9248 192.27 38.2924 192.098 38.5527 191.754C38.8131 191.406 38.9471 190.91 38.9547 190.264V189.851ZM40.7887 192.818V187.243H42.3622C42.8472 187.243 43.276 187.351 43.6487 187.565C44.0213 187.779 44.3085 188.084 44.5101 188.48C44.7143 188.876 44.8177 189.33 44.8202 189.843V190.199C44.8202 190.725 44.7181 191.186 44.5139 191.581C44.3123 191.977 44.0226 192.281 43.6448 192.492C43.2696 192.704 42.8319 192.813 42.3316 192.818H40.7887ZM41.5238 187.848V192.217H42.2971C42.8638 192.217 43.3041 192.041 43.618 191.688C43.9345 191.336 44.0928 190.835 44.0928 190.184V189.858C44.0928 189.225 43.9435 188.734 43.6448 188.384C43.3487 188.032 42.9276 187.853 42.3814 187.848H41.5238ZM47.4658 190.042L48.9207 187.243H49.7553L47.8334 190.739V192.818H47.0983V190.739L45.1763 187.243H46.0186L47.4658 190.042ZM53.2088 192.818H52.4737V187.243H53.2088V192.818ZM58.8407 192.818H58.1018L55.2954 188.522V192.818H54.5565V187.243H55.2954L58.1095 191.558V187.243H58.8407V192.818ZM63.883 187.848H62.0912V192.818H61.36V187.848H59.572V187.243H63.883V187.848ZM68.8909 190.211C68.8909 190.757 68.799 191.234 68.6153 191.642C68.4315 192.048 68.1711 192.358 67.8342 192.573C67.4973 192.787 67.1042 192.894 66.655 192.894C66.216 192.894 65.8267 192.787 65.4873 192.573C65.1478 192.356 64.8836 192.048 64.6947 191.65C64.5084 191.249 64.4127 190.786 64.4076 190.26V189.858C64.4076 189.322 64.5007 188.849 64.6871 188.438C64.8734 188.027 65.1363 187.713 65.4758 187.496C65.8178 187.277 66.2083 187.167 66.6473 187.167C67.094 187.167 67.4871 187.275 67.8266 187.492C68.1686 187.707 68.4315 188.019 68.6153 188.43C68.799 188.839 68.8909 189.315 68.8909 189.858V190.211ZM68.1596 189.851C68.1596 189.19 68.0269 188.683 67.7615 188.331C67.496 187.976 67.1246 187.799 66.6473 187.799C66.1828 187.799 65.8165 187.976 65.5485 188.331C65.2831 188.683 65.1465 189.173 65.1388 189.801V190.211C65.1388 190.851 65.2728 191.355 65.5409 191.723C65.8114 192.088 66.1828 192.27 66.655 192.27C67.1297 192.27 67.4973 192.098 67.7576 191.754C68.018 191.406 68.152 190.91 68.1596 190.264V189.851ZM75.637 187.848H73.8452V192.818H73.1139V187.848H71.3259V187.243H75.637V187.848ZM80.7482 192.818H80.0093V190.241H77.1991V192.818H76.464V187.243H77.1991V189.64H80.0093V187.243H80.7482V192.818ZM85.2048 190.241H82.7889V192.217H85.5953V192.818H82.0538V187.243H85.557V187.848H82.7889V189.64H85.2048V190.241ZM9.86852 201.061L9.97572 201.796L10.1327 201.133L11.2353 197.243H11.8556L12.9314 201.133L13.0846 201.807L13.2033 201.057L14.0685 197.243H14.8075L13.456 202.818H12.786L11.6374 198.756L11.5493 198.331L11.4612 198.756L10.2705 202.818H9.60052L8.25283 197.243H8.98793L9.86852 201.061ZM16.4155 202.818H15.6804V197.243H16.4155V202.818ZM19.4057 200.333C18.7752 200.152 18.3158 199.93 18.0274 199.667C17.7415 199.401 17.5986 199.075 17.5986 198.687C17.5986 198.248 17.7734 197.885 18.1231 197.599C18.4753 197.311 18.9322 197.167 19.4937 197.167C19.8766 197.167 20.2174 197.241 20.516 197.389C20.8172 197.537 21.0494 197.741 21.2128 198.001C21.3787 198.262 21.4617 198.546 21.4617 198.855H20.7227C20.7227 198.518 20.6155 198.254 20.4011 198.063C20.1867 197.869 19.8843 197.772 19.4937 197.772C19.1313 197.772 18.848 197.852 18.6438 198.013C18.4421 198.171 18.3413 198.392 18.3413 198.675C18.3413 198.902 18.437 199.095 18.6285 199.253C18.8224 199.409 19.1504 199.552 19.6124 199.682C20.077 199.812 20.4394 199.957 20.6998 200.115C20.9627 200.271 21.1566 200.453 21.2817 200.662C21.4093 200.872 21.4731 201.118 21.4731 201.401C21.4731 201.853 21.297 202.215 20.9448 202.489C20.5926 202.759 20.1216 202.894 19.532 202.894C19.1492 202.894 18.7918 202.822 18.46 202.676C18.1282 202.528 17.8717 202.327 17.6904 202.071C17.5118 201.816 17.4224 201.526 17.4224 201.202H18.1614C18.1614 201.539 18.2852 201.806 18.5327 202.002C18.7829 202.196 19.116 202.293 19.532 202.293C19.92 202.293 20.2174 202.214 20.4241 202.056C20.6308 201.898 20.7342 201.682 20.7342 201.409C20.7342 201.136 20.6385 200.925 20.4471 200.777C20.2556 200.627 19.9085 200.479 19.4057 200.333ZM26.7031 202.818H25.9641V200.241H23.1539V202.818H22.4188V197.243H23.1539V199.64H25.9641V197.243H26.7031V202.818ZM31.1596 200.241H28.7437V202.217H31.5501V202.818H28.0086V197.243H31.5119V197.848H28.7437V199.64H31.1596V200.241ZM32.4652 202.818V197.243H34.0388C34.5237 197.243 34.9525 197.351 35.3252 197.565C35.6978 197.779 35.985 198.084 36.1866 198.48C36.3908 198.876 36.4942 199.33 36.4968 199.843V200.199C36.4968 200.725 36.3947 201.186 36.1905 201.581C35.9888 201.977 35.6991 202.281 35.3214 202.492C34.9461 202.704 34.5084 202.813 34.0081 202.818H32.4652ZM33.2003 197.848V202.217H33.9737C34.5403 202.217 34.9806 202.041 35.2946 201.688C35.6111 201.336 35.7693 200.835 35.7693 200.184V199.858C35.7693 199.225 35.62 198.734 35.3214 198.384C35.0253 198.032 34.6041 197.853 34.0579 197.848H33.2003ZM42.6302 200.356H40.2909V202.818H39.5558V197.243H43.0093V197.848H40.2909V199.755H42.6302V200.356ZM48.1779 200.211C48.1779 200.757 48.0861 201.234 47.9023 201.642C47.7185 202.048 47.4582 202.358 47.1212 202.573C46.7843 202.787 46.3912 202.894 45.942 202.894C45.503 202.894 45.1138 202.787 44.7743 202.573C44.4348 202.356 44.1706 202.048 43.9817 201.65C43.7954 201.249 43.6997 200.786 43.6946 200.26V199.858C43.6946 199.322 43.7878 198.849 43.9741 198.438C44.1604 198.027 44.4233 197.713 44.7628 197.496C45.1048 197.277 45.4953 197.167 45.9344 197.167C46.381 197.167 46.7741 197.275 47.1136 197.492C47.4556 197.707 47.7185 198.019 47.9023 198.43C48.0861 198.839 48.1779 199.315 48.1779 199.858V200.211ZM47.4467 199.851C47.4467 199.19 47.3139 198.683 47.0485 198.331C46.783 197.976 46.4117 197.799 45.9344 197.799C45.4698 197.799 45.1035 197.976 44.8355 198.331C44.5701 198.683 44.4335 199.173 44.4259 199.801V200.211C44.4259 200.851 44.5599 201.355 44.8279 201.723C45.0984 202.088 45.4698 202.27 45.942 202.27C46.4168 202.27 46.7843 202.098 47.0447 201.754C47.305 201.406 47.439 200.91 47.4467 200.264V199.851ZM51.3251 200.563H50.0157V202.818H49.2768V197.243H51.1222C51.7501 197.243 52.2325 197.386 52.5694 197.672C52.9089 197.958 53.0786 198.374 53.0786 198.92C53.0786 199.267 52.9842 199.57 52.7953 199.828C52.609 200.085 52.3486 200.278 52.0143 200.406L53.3236 202.772V202.818H52.5349L51.3251 200.563ZM50.0157 199.962H51.1451C51.5101 199.962 51.7998 199.867 52.0143 199.678C52.2312 199.49 52.3397 199.237 52.3397 198.92C52.3397 198.576 52.2363 198.312 52.0296 198.128C51.8254 197.944 51.5293 197.851 51.1413 197.848H50.0157V199.962ZM55.0619 197.243L56.8843 201.792L58.7067 197.243H59.6601V202.818H58.925V200.647L58.9939 198.304L57.1638 202.818H56.601L54.7747 198.315L54.8474 200.647V202.818H54.1123V197.243H55.0619Z" fill="black"/>
<rect width="137.042" height="25.7635" transform="translate(8.01929 213.458)" fill="#E6F7FF"/>
<path d="M12.5179 220.969H10.7261V225.939H9.99487V220.969H8.20689V220.364H12.5179V220.969ZM14.0035 225.939H13.2952V221.796H14.0035V225.939ZM13.2377 220.697C13.2377 220.582 13.2722 220.485 13.3411 220.406C13.4126 220.327 13.5172 220.288 13.6551 220.288C13.7929 220.288 13.8975 220.327 13.969 220.406C14.0405 220.485 14.0762 220.582 14.0762 220.697C14.0762 220.812 14.0405 220.908 13.969 220.984C13.8975 221.061 13.7929 221.099 13.6551 221.099C13.5172 221.099 13.4126 221.061 13.3411 220.984C13.2722 220.908 13.2377 220.812 13.2377 220.697ZM15.8068 221.796L15.8259 222.255C16.1296 221.898 16.5393 221.719 17.0549 221.719C17.6343 221.719 18.0286 221.941 18.2379 222.386C18.3758 222.187 18.5544 222.026 18.774 221.903C18.996 221.781 19.2576 221.719 19.5588 221.719C20.4675 221.719 20.9295 222.201 20.9448 223.163V225.939H20.2365V223.205C20.2365 222.909 20.1689 222.688 20.0336 222.543C19.8983 222.395 19.6711 222.321 19.3521 222.321C19.0892 222.321 18.8709 222.4 18.6974 222.558C18.5238 222.714 18.423 222.924 18.3949 223.19V225.939H17.6828V223.224C17.6828 222.622 17.388 222.321 16.7984 222.321C16.3338 222.321 16.0161 222.518 15.845 222.914V225.939H15.1367V221.796H15.8068ZM23.7359 226.015C23.1743 226.015 22.7175 225.831 22.3652 225.464C22.013 225.094 21.8369 224.6 21.8369 223.982V223.852C21.8369 223.441 21.9147 223.075 22.0704 222.753C22.2287 222.429 22.4482 222.176 22.7289 221.995C23.0123 221.811 23.3186 221.719 23.6478 221.719C24.1864 221.719 24.605 221.897 24.9036 222.252C25.2022 222.606 25.3516 223.114 25.3516 223.775V224.07H22.5452C22.5554 224.479 22.6741 224.809 22.9012 225.062C23.131 225.312 23.4219 225.437 23.7742 225.437C24.0243 225.437 24.2362 225.386 24.4097 225.284C24.5833 225.182 24.7352 225.047 24.8653 224.878L25.298 225.215C24.9508 225.748 24.4301 226.015 23.7359 226.015ZM23.6478 222.301C23.3619 222.301 23.122 222.406 22.928 222.615C22.734 222.822 22.6141 223.113 22.5681 223.488H24.6433V223.435C24.6228 223.075 24.5259 222.797 24.3523 222.6C24.1787 222.401 23.9439 222.301 23.6478 222.301ZM28.1771 222.432C28.0699 222.414 27.9538 222.405 27.8287 222.405C27.3642 222.405 27.0489 222.603 26.883 222.998V225.939H26.1747V221.796H26.8639L26.8754 222.275C27.1076 221.904 27.4369 221.719 27.8632 221.719C28.001 221.719 28.1056 221.737 28.1771 221.773V222.432Z" fill="#767676"/>
<rect x="8.01929" y="230.26" width="137.042" height="4.48061" fill="#1890FF"/>
<g clip-path="url(#clip1)">
<rect x="8.01929" y="243.137" width="137.042" height="19.5775" rx="1.4786" fill="#1890FF"/>
<path d="M62.7581 253.948C62.6156 254.152 62.4163 254.305 62.1603 254.407C61.9061 254.507 61.6096 254.557 61.2708 254.557C60.9281 254.557 60.6239 254.477 60.3582 254.318C60.0925 254.156 59.8865 253.927 59.7402 253.63C59.5958 253.334 59.5217 252.99 59.5179 252.599V252.233C59.5179 251.599 59.6651 251.108 59.9597 250.76C60.2562 250.411 60.672 250.237 61.2073 250.237C61.6462 250.237 61.9995 250.35 62.2671 250.575C62.5347 250.798 62.6984 251.116 62.7581 251.528H62.2036C62.0996 250.972 61.7685 250.693 61.2102 250.693C60.8386 250.693 60.5565 250.824 60.364 251.086C60.1734 251.346 60.0771 251.723 60.0752 252.218V252.562C60.0752 253.034 60.183 253.409 60.3987 253.688C60.6143 253.965 60.906 254.104 61.2737 254.104C61.4816 254.104 61.6636 254.081 61.8195 254.035C61.9754 253.988 62.1044 253.911 62.2065 253.801V252.856H61.2333V252.406H62.7581V253.948ZM66.0618 252.556H64.2396V254.046H66.3564V254.5H63.6851V250.295H66.3275V250.751H64.2396V252.103H66.0618V252.556ZM70.0096 250.751H68.658V254.5H68.1064V250.751H66.7578V250.295H70.0096V250.751ZM74.3067 253.402H72.5451L72.1495 254.5H71.5777L73.1834 250.295H73.6685L75.2771 254.5H74.7082L74.3067 253.402ZM72.7126 252.946H74.1421L73.4259 250.979L72.7126 252.946ZM80.4146 253.948C80.2722 254.152 80.0729 254.305 79.8168 254.407C79.5627 254.507 79.2662 254.557 78.9274 254.557C78.5847 254.557 78.2805 254.477 78.0148 254.318C77.7491 254.156 77.5431 253.927 77.3968 253.63C77.2524 253.334 77.1783 252.99 77.1744 252.599V252.233C77.1744 251.599 77.3217 251.108 77.6163 250.76C77.9128 250.411 78.3286 250.237 78.8638 250.237C79.3028 250.237 79.6561 250.35 79.9237 250.575C80.1913 250.798 80.355 251.116 80.4146 251.528H79.8602C79.7562 250.972 79.4251 250.693 78.8667 250.693C78.4952 250.693 78.2131 250.824 78.0206 251.086C77.83 251.346 77.7337 251.723 77.7318 252.218V252.562C77.7318 253.034 77.8396 253.409 78.0552 253.688C78.2709 253.965 78.5625 254.104 78.9303 254.104C79.1382 254.104 79.3201 254.081 79.4761 254.035C79.632 253.988 79.761 253.911 79.8631 253.801V252.856H78.8898V252.406H80.4146V253.948ZM84.3017 250.295V253.154C84.2998 253.55 84.1747 253.875 83.9263 254.127C83.6799 254.379 83.3449 254.521 82.9213 254.552L82.7741 254.557C82.3139 254.557 81.9472 254.433 81.6738 254.185C81.4004 253.936 81.2618 253.595 81.2579 253.16V250.295H81.8066V253.142C81.8066 253.447 81.8904 253.683 82.0579 253.853C82.2254 254.02 82.4641 254.104 82.7741 254.104C83.0879 254.104 83.3276 254.02 83.4931 253.853C83.6606 253.685 83.7444 253.449 83.7444 253.145V250.295H84.3017ZM85.7717 254.5H85.2172V250.295H85.7717V254.5ZM86.7882 254.5V250.295H87.9751C88.3409 250.295 88.6644 250.376 88.9455 250.537C89.2266 250.699 89.4432 250.929 89.5953 251.228C89.7493 251.526 89.8272 251.869 89.8292 252.256V252.524C89.8292 252.921 89.7522 253.268 89.5981 253.567C89.446 253.865 89.2275 254.094 88.9426 254.254C88.6596 254.414 88.3294 254.496 87.952 254.5H86.7882ZM87.3427 250.751V254.046H87.9261C88.3535 254.046 88.6856 253.913 88.9224 253.648C89.1611 253.382 89.2805 253.004 89.2805 252.513V252.267C89.2805 251.79 89.1678 251.419 88.9426 251.155C88.7193 250.89 88.4016 250.755 87.9896 250.751H87.3427ZM93.0463 252.556H91.224V254.046H93.3409V254.5H90.6695V250.295H93.312V250.751H91.224V252.103H93.0463V252.556Z" fill="#E6F7FF"/>
</g>
</g>
<rect x="2.19019" y="2" width="152.62" height="274" rx="14" stroke="#8C8C8C" stroke-width="4"/>
<defs>
<clipPath id="clip0">
</clipPath>
<clipPath id="clip1">
<rect x="8.01929" y="243.137" width="137.042" height="19.5775" rx="1.4786" fill="white"/>
</clipPath>
</defs>
</svg>
