<svg width="11" height="18" viewBox="0 0 11 18" fill="none" xmlns="http://www.w3.org/2000/svg">
<path d="M10.7327 2.0555V0.330056C10.7327 0.180502 10.5608 0.0979127 10.4448 0.189431L0.382252 8.04881C0.296757 8.11529 0.227577 8.20043 0.17999 8.29772C0.132403 8.39501 0.107666 8.50189 0.107666 8.61019C0.107666 8.7185 0.132403 8.82537 0.17999 8.92266C0.227577 9.01995 0.296757 9.10509 0.382252 9.17157L10.4448 17.031C10.5631 17.1225 10.7327 17.0399 10.7327 16.8903V15.1649C10.7327 15.0555 10.6814 14.9506 10.5965 14.8836L2.56082 8.61131L10.5965 2.33675C10.6814 2.26979 10.7327 2.16488 10.7327 2.0555Z" fill="black" fill-opacity="0.85"/>
</svg>
