<svg width="16" height="15" viewBox="0 0 16 15" fill="none" xmlns="http://www.w3.org/2000/svg">
<path d="M9.15591 7.48919L15.0153 0.504813C15.1135 0.388742 15.0309 0.212402 14.8791 0.212402H13.0979C12.993 0.212402 12.8925 0.259277 12.8233 0.339634L7.99073 6.1008L3.15814 0.339634C3.09117 0.259277 2.99073 0.212402 2.88358 0.212402H1.10233C0.950549 0.212402 0.867959 0.388742 0.966173 0.504813L6.82555 7.48919L0.966173 14.4736C0.944173 14.4994 0.930058 14.5311 0.925505 14.5647C0.920953 14.5984 0.926153 14.6326 0.940489 14.6634C0.954825 14.6942 0.977695 14.7202 1.00638 14.7384C1.03507 14.7566 1.06837 14.7662 1.10233 14.766H2.88358C2.9885 14.766 3.08894 14.7191 3.15814 14.6387L7.99073 8.87758L12.8233 14.6387C12.8903 14.7191 12.9907 14.766 13.0979 14.766H14.8791C15.0309 14.766 15.1135 14.5896 15.0153 14.4736L9.15591 7.48919Z" fill="black" fill-opacity="0.85"/>
</svg>
