<svg width="24" height="25" viewBox="0 0 24 25" fill="none" xmlns="http://www.w3.org/2000/svg">
<path d="M21.4282 12.3968H11.8389V2.80754C11.8389 2.68968 11.7425 2.59326 11.6246 2.59326H10.9282C9.52112 2.59095 8.12749 2.86689 6.82748 3.40519C5.52746 3.94349 4.34672 4.73353 3.35317 5.72986C2.37471 6.7053 1.59509 7.86154 1.05763 9.13433C0.498362 10.4544 0.211378 11.8739 0.213883 13.3075C0.211579 14.7146 0.487516 16.1082 1.02582 17.4082C1.56412 18.7083 2.35416 19.889 3.35049 20.8825C4.33353 21.8656 5.47996 22.6397 6.75496 23.1781C8.07506 23.7374 9.49449 24.0243 10.9282 24.0218C12.3352 24.0241 13.7288 23.7482 15.0289 23.2099C16.3289 22.6716 17.5096 21.8816 18.5032 20.8852C19.4862 19.9022 20.2603 18.7558 20.7987 17.4808C21.358 16.1607 21.645 14.7412 21.6425 13.3075V12.6111C21.6425 12.4933 21.546 12.3968 21.4282 12.3968ZM17.188 19.6236C16.3586 20.4466 15.3749 21.0978 14.2934 21.54C13.2119 21.9821 12.0537 22.2066 10.8853 22.2004C8.52549 22.1897 6.30763 21.2656 4.63888 19.5968C2.95942 17.9174 2.03531 15.6834 2.03531 13.3075C2.03531 10.9316 2.95942 8.69772 4.63888 7.01826C6.10138 5.55576 7.98442 4.66379 10.0175 4.46022V14.2183H19.7755C19.5692 16.262 18.6692 18.1558 17.188 19.6236ZM23.7853 10.9075L23.7157 10.1522C23.488 7.68522 22.3925 5.35754 20.63 3.6004C18.8662 1.84003 16.5433 0.750574 14.0621 0.520041L13.3041 0.450399C13.1782 0.439684 13.071 0.536113 13.071 0.662006V10.9504C13.071 11.0683 13.1675 11.1647 13.2853 11.1647L23.571 11.1379C23.6969 11.1379 23.796 11.0308 23.7853 10.9075ZM14.8871 9.34861V2.4754C16.5744 2.82856 18.1229 3.66419 19.3442 4.88076C20.5683 6.10218 21.4067 7.65576 21.755 9.32986L14.8871 9.34861Z" fill="#2F54EB"/>
</svg>
