<?xml version="1.0" encoding="utf-8"?>
<!-- Generator: Adobe Illustrator 24.0.3, SVG Export Plug-In . SVG Version: 6.00 Build 0)  -->
<svg version="1.1" id="Слой_1" xmlns="http://www.w3.org/2000/svg" xmlns:xlink="http://www.w3.org/1999/xlink" x="0px" y="0px"
	 viewBox="0 0 141.12 106.12" style="enable-background:new 0 0 141.12 106.12;" xml:space="preserve">
<style type="text/css">
	.st0{fill:#2F54EA;}
	.st1{fill:url(#SVGID_1_);}
	.st2{fill:url(#SVGID_2_);}
	.st3{fill:url(#SVGID_3_);}
	.st4{fill:url(#SVGID_4_);}
	.st5{fill:url(#SVGID_5_);}
</style>
<g>
	<g>
		<path class="st0" d="M65.94,39.71c0.23-0.99,0.7-1.76,1.42-2.31c0.72-0.55,1.53-0.83,2.43-0.83H73c0.5,0,0.86,0.15,1.06,0.45
			c0.13,0.16,0.24,0.47,0.33,0.91c0.16-0.19,0.36-0.5,0.62-0.91c0.29-0.3,0.66-0.45,1.11-0.45h3.26c0.93,0,1.62,0.27,2.08,0.81
			c0.45,0.54,0.57,1.31,0.33,2.33l-6.85,29.94h-3.13l6.85-29.94h-3.26l-6.85,29.94h-3.13l6.85-29.94h-3.21l-6.85,29.94h-3.13
			L65.94,39.71z"/>
		<path class="st0" d="M90.51,36.57c0.75,0,1.38,0.34,1.89,1.03c0.51,0.69,0.68,1.39,0.52,2.11l-6.85,29.94h-3.13l3.68-16.04H83.4
			l-3.68,16.04h-3.13l6.85-29.94c0.16-0.72,0.66-1.42,1.5-2.11c0.83-0.69,1.62-1.03,2.35-1.03H90.51z M84.1,50.55h3.21l2.48-10.84
			h-3.21L84.1,50.55z"/>
		<path class="st0" d="M93.31,46.23c-0.02-0.83,0.08-1.73,0.31-2.73l0.85-3.72c0.16-0.72,0.67-1.43,1.51-2.15
			c0.84-0.72,1.63-1.07,2.36-1.07h3.21c0.75,0,1.38,0.34,1.89,1.03c0.51,0.69,0.68,1.39,0.52,2.11l-1.19,5.4h-3.13l1.19-5.4h-3.21
			l-0.87,3.8c-0.2,0.88-0.23,1.75-0.09,2.6c0.09,0.58,0.27,1.2,0.54,1.86l2.58,5.62c0.34,0.83,0.36,2.15,0.06,3.96
			c-0.08,0.47-0.33,1.62-0.75,3.47l-1.28,5.57c-0.16,0.72-0.66,1.4-1.47,2.06c-0.82,0.66-1.6,0.99-2.35,0.99h-3.21
			c-0.73,0-1.36-0.33-1.89-0.99c-0.53-0.66-0.71-1.35-0.54-2.06l1.47-6.33h3.13l-1.47,6.33h3.21l1.28-5.57
			c0.48-2.09,0.76-3.52,0.83-4.27c0.07-0.76-0.06-1.51-0.39-2.25l-2.56-5.82C93.5,47.87,93.33,47.06,93.31,46.23z"/>
		<path class="st0" d="M115.2,36.57l-0.72,3.14h-3.17l-6.85,29.94h-3.21l6.85-29.94h-3.13l0.72-3.14H115.2z"/>
		<path class="st0" d="M108.73,69.65l7.57-33.08h8.41l-0.72,3.14h-5.29l-2.53,10.8h4.65l-0.7,3.06h-4.65l-2.93,13.03h5.29l-0.7,3.06
			H108.73z"/>
		<path class="st0" d="M124.63,69.65l3.71-16.09h-3.21l-3.71,16.09h-3.13l7.57-33.08h6.34c0.75,0,1.38,0.34,1.89,1.03
			c0.51,0.69,0.68,1.39,0.52,2.11l-2.44,10.8c-0.07,0.3-0.28,0.62-0.63,0.95c-0.35,0.33-0.74,0.58-1.17,0.74
			c0.41,0.16,0.7,0.39,0.89,0.66c0.19,0.28,0.23,0.65,0.12,1.11l-3.62,15.67H124.63z M125.83,50.51h3.21l2.44-10.8h-3.21
			L125.83,50.51z"/>
	</g>
	<g>
		<linearGradient id="SVGID_1_" gradientUnits="userSpaceOnUse" x1="13.1842" y1="67.7511" x2="67.6985" y2="14.5271">
			<stop  offset="0" style="stop-color:#9EB7FB"/>
			<stop  offset="1" style="stop-color:#698AF7"/>
		</linearGradient>
		<path class="st1" d="M20.29,34.17c-0.06-2.27,0.22-4.76,0.84-7.49l2.34-10.21c0.45-1.97,1.83-3.93,4.14-5.9
			c2.31-1.97,4.47-2.95,6.48-2.95h8.83c2.06,0,3.79,0.95,5.19,2.84c1.4,1.89,1.88,3.82,1.43,5.79l-2.39,10.44h-8.59l2.39-10.44
			h-8.83l-2.39,10.44c-0.55,2.42-0.64,4.8-0.25,7.15c0.25,1.59,0.75,3.29,1.48,5.1l7.08,14.43c0.94,2.27,0.99,5.9,0.16,10.89
			c-0.22,1.29-0.91,5.46-2.07,10.53L32.63,90.1c-0.45,1.97-1.8,3.86-4.05,5.67c-2.25,1.81-4.41,2.72-6.47,2.72h-8.83
			c-2.01,0-3.74-0.91-5.18-2.72c-1.44-1.82-1.94-3.7-1.49-5.67l3.58-15.49h8.6L15.21,90.1h8.83l3.51-15.31
			c1.32-5.75,2.07-10.66,2.28-12.74c0.2-2.08-0.16-4.14-1.08-6.18l-7.02-14.99C20.82,38.67,20.35,36.44,20.29,34.17z"/>
		<linearGradient id="SVGID_2_" gradientUnits="userSpaceOnUse" x1="19.8537" y1="74.5823" x2="74.368" y2="21.3583">
			<stop  offset="0" style="stop-color:#9EB7FB"/>
			<stop  offset="1" style="stop-color:#698AF7"/>
		</linearGradient>
		<polygon class="st2" points="75.36,35.35 81.71,7.63 73.11,7.63 66.77,35.35 		"/>
		<linearGradient id="SVGID_3_" gradientUnits="userSpaceOnUse" x1="26.6858" y1="81.5799" x2="81.2001" y2="28.3559">
			<stop  offset="0" style="stop-color:#9EB7FB"/>
			<stop  offset="1" style="stop-color:#698AF7"/>
		</linearGradient>
		<path class="st3" d="M58.57,71.16L54.23,90.1h-8.83L64.28,7.63h-8.6L36.81,90.1c-0.45,1.97,0.05,3.86,1.49,5.67
			c1.44,1.81,3.17,2.72,5.18,2.72h8.83c2.06,0,4.22-0.91,6.47-2.72c2.25-1.82,3.6-3.7,4.05-5.67l4.33-18.94H58.57z"/>
		<linearGradient id="SVGID_4_" gradientUnits="userSpaceOnUse" x1="30.5094" y1="85.4963" x2="85.0237" y2="32.2723">
			<stop  offset="0" style="stop-color:#9EB7FB"/>
			<stop  offset="1" style="stop-color:#698AF7"/>
		</linearGradient>
		<path class="st4" d="M88.48,35.35l4.37-19.09h8.83l-4.37,19.09h8.6l4.37-19.09c0.45-1.97-0.03-3.89-1.43-5.79
			c-1.4-1.89-3.13-2.84-5.19-2.84H86.23l-6.34,27.71H88.48z"/>
		<linearGradient id="SVGID_5_" gradientUnits="userSpaceOnUse" x1="53.9647" y1="109.5202" x2="108.479" y2="56.2961">
			<stop  offset="0" style="stop-color:#9EB7FB"/>
			<stop  offset="1" style="stop-color:#698AF7"/>
		</linearGradient>
		<path class="st5" d="M89.11,71.16L84.78,90.1h-8.83l4.33-18.94h-8.6l-6.26,27.33h17.65c2.14,0,4.27-0.89,6.39-2.67
			c2.12-1.78,3.42-3.69,3.89-5.73l4.33-18.94H89.11z"/>
	</g>
</g>
</svg>
