<svg width="56" height="38" viewBox="0 0 56 38" fill="none" xmlns="http://www.w3.org/2000/svg">
<path d="M37.0051 18.9994L46.2563 28.2506L37.0051 37.5018L27.7539 28.2506L37.0051 18.9994Z" fill="#85A5FF"/>
<path d="M18.494 18.9922L27.7411 28.2393L18.494 37.4863L9.24694 28.2393L18.494 18.9922Z" fill="#85A5FF"/>
<rect x="27.7618" y="9.75766" width="13.0948" height="13.0948" transform="rotate(45 27.7618 9.75766)" fill="#8A88FF"/>
<rect x="9.25946" y="9.75766" width="13.0948" height="13.0948" transform="rotate(45 9.25946 9.75766)" fill="#ADC6FF"/>
<path d="M37.013 0.498169L46.2725 9.75763L37.013 19.0171L27.7535 9.75763L37.013 0.498169Z" fill="#85A5FF"/>
<path d="M18.5101 0.498169L27.7695 9.75763L18.5101 19.0171L9.25061 9.75763L18.5101 0.498169Z" fill="#85A5FF"/>
<rect x="46.2636" y="9.74933" width="13.0948" height="13.0948" transform="rotate(45 46.2636 9.74933)" fill="#ADC6FF"/>
<path d="M27.7618 9.74933L37.0212 19.0088L27.7618 28.2682L18.5023 19.0088L27.7618 9.74933Z" fill="#1D39C4"/>
</svg>
