<svg width="18" height="17" viewBox="0 0 18 17" fill="none" xmlns="http://www.w3.org/2000/svg">
<path d="M17.7499 0.502441H0.249861C0.151646 0.502441 0.0712891 0.582799 0.0712891 0.681013V2.10958C0.0712891 2.2078 0.151646 2.28816 0.249861 2.28816H17.7499C17.8481 2.28816 17.9284 2.2078 17.9284 2.10958V0.681013C17.9284 0.582799 17.8481 0.502441 17.7499 0.502441ZM17.7499 14.431H0.249861C0.151646 14.431 0.0712891 14.5114 0.0712891 14.6096V16.0382C0.0712891 16.1364 0.151646 16.2167 0.249861 16.2167H17.7499C17.8481 16.2167 17.9284 16.1364 17.9284 16.0382V14.6096C17.9284 14.5114 17.8481 14.431 17.7499 14.431ZM17.7499 7.46673H0.249861C0.151646 7.46673 0.0712891 7.54708 0.0712891 7.6453V9.07387C0.0712891 9.17208 0.151646 9.25244 0.249861 9.25244H17.7499C17.8481 9.25244 17.9284 9.17208 17.9284 9.07387V7.6453C17.9284 7.54708 17.8481 7.46673 17.7499 7.46673Z" fill="black" fill-opacity="0.85"/>
</svg>
